<?xml version="1.0" encoding="utf-8"?>
<!-- Generator: Adobe Illustrator 23.0.3, SVG Export Plug-In . SVG Version: 6.00 Build 0)  -->
<svg version="1.1" id="Layer_1" xmlns="http://www.w3.org/2000/svg" xmlns:xlink="http://www.w3.org/1999/xlink" x="0px" y="0px"
	 viewBox="0 0 138.9 44.3" style="enable-background:new 0 0 138.9 44.3;" xml:space="preserve">
<style type="text/css">
	.st0{fill:#FF0000;}
	.st1{fill:none;stroke:#888888;stroke-width:0.5;stroke-miterlimit:10;}
	.st2{fill:none;stroke:#000000;stroke-miterlimit:10;}
	.st3{fill:none;}
	.st4{fill:none;stroke:#FF0000;stroke-miterlimit:10;}
</style>
<g>
	<path d="M6.4,14.4h4.2l5.9,17h-3.4l-1.9-5.5H5.2l-2.1,5.5h-3.3L6.4,14.4z M10.5,23.5l-2.1-7l-2.3,7H10.5z"/>
	<path d="M17.3,24.9V14.4h3.3v10.3c0,3,1.6,4.2,4.2,4.2c2.6,0,4.2-1.4,4.2-4.8v-9.8h3.2v9.8c0,5.7-3.9,7.4-7.4,7.4
		C21.1,31.7,17.3,30.2,17.3,24.9z"/>
	<path d="M38.2,17h-5.5v-2.6H47V17h-5.5v14.4h-3.3V17z"/>
	<path d="M45.7,22.9c0-5.3,3.6-8.7,9.1-8.7c5.9,0,8.6,3.7,8.6,8.8c0,5.3-3.3,8.8-9.1,8.8C48.7,31.7,45.7,28.2,45.7,22.9z M60.1,22.9
		c0-3.5-1.8-6.1-5.5-6.1c-3.9,0-5.6,2.6-5.6,6.1c0,3.4,1.7,6.2,5.4,6.2C58.5,29.1,60.1,26.4,60.1,22.9z"/>
	<path class="st0" d="M65.2,14.4h6.2c3.6,0,6.1,2.1,6.1,5.8c0,3.2-2.5,5.9-7.4,5.9H69v-2.6h1.3c2.6,0,3.9-1.2,3.9-3.2
		c0-2-0.9-3.3-3.3-3.3h-2.4v14.4h-3.3V14.4z"/>
	<path class="st0" d="M78.6,14.4h3.3v17h-3.3V14.4z"/>
	<path d="M84.7,14.4h3.3v14.3h7.4v2.6H84.7V14.4z"/>
	<path d="M94,22.9c0-5.3,3.6-8.7,9.1-8.7c5.9,0,8.6,3.7,8.6,8.8c0,5.3-3.3,8.8-9.1,8.8C97,31.7,94,28.2,94,22.9z M108.4,22.9
		c0-3.5-1.8-6.1-5.5-6.1c-3.9,0-5.6,2.6-5.6,6.1c0,3.4,1.7,6.2,5.4,6.2C106.7,29.1,108.4,26.4,108.4,22.9z"/>
	<path d="M116,17h-5.5v-2.6h14.3V17h-5.5v14.4H116V17z"/>
</g>
<g>
	<path class="st1" d="M102.7,37.8c3.6,3.3,8.4,5.2,13.7,5.2c11.4,0,20.6-9.2,20.6-20.6c0-11.4-9.2-20.6-20.6-20.6
		c-1.7,0-3.3,0.2-4.9,0.6h0"/>
	<path class="st1" d="M105.5,35c3,2.7,6.9,4.3,11.2,4.3c9.3,0,16.8-7.5,16.8-16.8c0-9.3-7.5-16.8-16.8-16.8c-1.4,0-2.7,0.2-4,0.5h0"
		/>
	<path class="st1" d="M108.1,32.5c2.4,2.1,5.5,3.4,9,3.4c7.4,0,13.5-6,13.5-13.5c0-7.4-6-13.5-13.5-13.5c-1.1,0-2.2,0.1-3.2,0.4"/>
	<g>
		<g>
			<path class="st2" d="M131.7,8.7c-3.8-4.2-9.2-6.8-15.3-6.8c-0.4,0-0.9,0-1.3,0"/>
			<g>
				<path d="M132.5,7.8c0.5,0.5,0.4,1.3-0.1,1.8c-0.5,0.5-1.3,0.4-1.8-0.1c-0.5-0.5-0.4-1.3,0.1-1.8C131.3,7.3,132.1,7.3,132.5,7.8z
					"/>
			</g>
			<g>
				<path d="M115.1,0.7c-0.7,0-1.2,0.6-1.2,1.3c0,0.7,0.6,1.2,1.3,1.2c0.7,0,1.2-0.6,1.2-1.3C116.4,1.2,115.8,0.7,115.1,0.7z"/>
			</g>
		</g>
	</g>
	<g>
		<g>
			<path class="st2" d="M106.9,40.7c2.9,1.5,6.1,2.3,9.5,2.3c5.8,0,11-2.4,14.8-6.2"/>
			<g>
				<path d="M106.4,41.8c-0.6-0.3-0.8-1.1-0.5-1.7c0.3-0.6,1.1-0.8,1.7-0.5c0.6,0.3,0.8,1.1,0.5,1.7C107.7,41.9,107,42.1,106.4,41.8
					z"/>
			</g>
			<g>
				<path d="M132,37.7c0.5-0.5,0.5-1.3,0-1.8s-1.3-0.5-1.8,0c-0.5,0.5-0.5,1.3,0,1.8S131.5,38.2,132,37.7z"/>
			</g>
		</g>
	</g>
	<g>
		<g>
			<path class="st2" d="M113.7,39c1,0.2,2,0.3,3,0.3c5.8,0,10.9-2.9,13.9-7.3"/>
			<g>
				<path d="M113.5,40.2c-0.7-0.1-1.1-0.8-1-1.5c0.1-0.7,0.8-1.1,1.5-1c0.7,0.1,1.1,0.8,1,1.5C114.8,39.9,114.2,40.3,113.5,40.2z"/>
			</g>
			<g>
				<path d="M131.6,32.7c0.4-0.6,0.2-1.3-0.3-1.7s-1.3-0.2-1.7,0.3c-0.4,0.6-0.2,1.3,0.3,1.7S131.2,33.2,131.6,32.7z"/>
			</g>
		</g>
	</g>
	<line class="st2" x1="120.6" y1="38.6" x2="119.8" y2="35.7"/>
	<g>
		<g>
			<path class="st4" d="M109,33.2c2.2,1.7,5,2.7,8.1,2.7c7.4,0,13.5-6,13.5-13.5c0-7-5.4-12.8-12.3-13.4"/>
			<g>
				<path class="st0" d="M108.3,34.2c-0.5-0.4-0.6-1.2-0.2-1.7s1.2-0.6,1.7-0.2c0.5,0.4,0.6,1.2,0.2,1.7S108.8,34.7,108.3,34.2z"/>
			</g>
			<g>
				<path class="st0" d="M118.4,7.8c-0.7,0-1.3,0.5-1.3,1.2c0,0.7,0.5,1.3,1.2,1.3c0.7,0,1.3-0.5,1.3-1.2
					C119.6,8.4,119.1,7.9,118.4,7.8z"/>
			</g>
		</g>
	</g>
	<line class="st4" x1="126.7" y1="13.1" x2="128.9" y2="10.9"/>
	<g>
		<g>
			<path class="st2" d="M124.4,7.5c5.4,2.8,9.1,8.4,9.1,15c0,1.4-0.2,2.8-0.5,4.1l3.4,0.8c0.3-1.3,0.5-2.7,0.6-4.3
				c0-0.2,0-0.4,0-0.6"/>
			<g>
				<path d="M123.9,8.7c-0.6-0.3-0.8-1.1-0.5-1.7c0.3-0.6,1.1-0.8,1.7-0.5c0.6,0.3,0.8,1.1,0.5,1.7C125.2,8.7,124.5,9,123.9,8.7z"/>
			</g>
			<g>
				<circle cx="137" cy="22.6" r="1.2"/>
			</g>
		</g>
	</g>
</g>
</svg>
