<?xml version="1.0" encoding="utf-8"?>
<!-- Generator: Adobe Illustrator 21.1.0, SVG Export Plug-In . SVG Version: 6.00 Build 0)  -->
<svg version="1.1" id="Layer_1" xmlns="http://www.w3.org/2000/svg" xmlns:xlink="http://www.w3.org/1999/xlink" x="0px" y="0px"
	 viewBox="0 0 138.9 44.3" style="enable-background:new 0 0 138.9 44.3;" xml:space="preserve">
<style type="text/css">
	.st0{fill:#FF0000;}
	.st1{fill:none;stroke:#000000;stroke-miterlimit:10;}
	.st2{fill:none;stroke:#FF0000;stroke-miterlimit:10;}
	.st3{fill:none;stroke:#000000;stroke-width:0.125;stroke-miterlimit:10;}
	.st4{fill:none;stroke:#888888;stroke-width:0.5;stroke-miterlimit:10;}
	.st5{fill:none;}
</style>
<g>
	<path d="M6.4,14.4h4.2l5.9,17h-3.4l-1.9-5.5H5.2l-2.1,5.5h-3.3L6.4,14.4z M10.5,23.5l-2.1-7l-2.3,7H10.5z"/>
	<path d="M17.2,24.9V14.4h3.3v10.3c0,3,1.6,4.2,4.2,4.2c2.6,0,4.2-1.4,4.2-4.8v-9.8h3.2v9.8c0,5.7-3.9,7.4-7.4,7.4
		C21.1,31.7,17.2,30.2,17.2,24.9z"/>
	<path d="M38.2,17h-5.5v-2.6H47V17h-5.5v14.4h-3.3V17z"/>
	<path d="M45.7,22.9c0-5.3,3.6-8.7,9.1-8.7c5.9,0,8.6,3.7,8.6,8.8c0,5.3-3.3,8.8-9.1,8.8C48.7,31.7,45.7,28.2,45.7,22.9z M60.1,22.9
		c0-3.5-1.8-6.1-5.5-6.1c-3.9,0-5.6,2.6-5.6,6.1c0,3.4,1.7,6.2,5.4,6.2C58.5,29.1,60.1,26.4,60.1,22.9z"/>
	<path class="st0" d="M65.2,14.4h6.2c3.6,0,6.1,2.1,6.1,5.8c0,3.2-2.5,5.9-7.4,5.9H69v-2.6h1.3c2.6,0,3.9-1.2,3.9-3.2
		c0-2-0.9-3.3-3.3-3.3h-2.4v14.4h-3.3V14.4z"/>
	<path class="st0" d="M78.6,14.4h3.3v17h-3.3V14.4z"/>
	<path d="M84.7,14.4h3.3v14.3h7.4v2.6H84.7V14.4z"/>
	<path d="M94,22.9c0-5.3,3.6-8.7,9.1-8.7c5.9,0,8.6,3.7,8.6,8.8c0,5.3-3.3,8.8-9.1,8.8C97,31.7,94,28.2,94,22.9z M108.4,22.9
		c0-3.5-1.8-6.1-5.5-6.1c-3.9,0-5.6,2.6-5.6,6.1c0,3.4,1.7,6.2,5.4,6.2C106.7,29.1,108.4,26.4,108.4,22.9z"/>
	<path d="M116,17h-5.5v-2.6h14.3V17h-5.5v14.4H116V17z"/>
</g>
<line class="st1" x1="190.9" y1="2.8" x2="190.9" y2="2.8"/>
<path class="st1" d="M179.3,49.1"/>
<line class="st1" x1="191.5" y1="5.2" x2="191.5" y2="5.2"/>
<path class="st1" d="M197.3,4.5"/>
<path class="st1" d="M180.9,47.3"/>
<path class="st2" d="M192.1,7.6"/>
<path class="st3" d="M198.2,29"/>
<path class="st1" d="M211.4,3.2"/>
<path class="st1" d="M210.3,5.4"/>
<path class="st1" d="M184.1,64.8"/>
<path class="st1" d="M185.7,63"/>
<g>
	<path class="st4" d="M102.7,37.8c3.6,3.3,8.4,5.2,13.7,5.2c11.4,0,20.6-9.2,20.6-20.6c0-11.4-9.2-20.6-20.6-20.6
		c-1.7,0-3.3,0.2-4.9,0.6h0"/>
	<path class="st4" d="M105.5,35c3,2.7,6.9,4.3,11.2,4.3c9.3,0,16.8-7.5,16.8-16.8c0-9.3-7.5-16.8-16.8-16.8c-1.4,0-2.7,0.2-4,0.5h0"
		/>
	<path class="st4" d="M108.1,32.5c2.4,2.1,5.5,3.4,9,3.4c7.4,0,13.5-6,13.5-13.5c0-7.4-6-13.5-13.5-13.5c-1.1,0-2.2,0.1-3.2,0.4"/>
	<g>
		<g>
			<path class="st1" d="M131.7,8.7c-3.8-4.2-9.2-6.8-15.3-6.8c-0.4,0-0.9,0-1.3,0"/>
			<g>
				<ellipse transform="matrix(0.7435 -0.6688 0.6688 0.7435 27.9825 90.2284)" cx="131.6" cy="8.6" rx="1.2" ry="1.2"/>
			</g>
			<g>
				
					<ellipse transform="matrix(0.9982 -5.945533e-02 5.945533e-02 0.9982 8.727222e-02 6.8504)" cx="115.2" cy="2" rx="1.2" ry="1.2"/>
			</g>
		</g>
	</g>
	<path class="st1" d="M132.3,16.2"/>
	<g>
		<path class="st5" d="M130.6,34.2"/>
	</g>
	<g>
		<g>
			<path class="st1" d="M106.9,40.7c2.9,1.5,6.1,2.3,9.5,2.3c5.8,0,11-2.4,14.8-6.2"/>
			<g>
				<ellipse transform="matrix(0.4573 -0.8893 0.8893 0.4573 21.8574 117.1718)" cx="106.9" cy="40.7" rx="1.2" ry="1.2"/>
			</g>
			<g>
				<ellipse transform="matrix(0.6935 -0.7205 0.7205 0.6935 13.6542 105.7401)" cx="131.1" cy="36.8" rx="1.2" ry="1.2"/>
			</g>
		</g>
	</g>
	<g>
		<g>
			<path class="st1" d="M113.7,39c1,0.2,2,0.3,3,0.3c5.8,0,10.9-2.9,13.9-7.3"/>
			<g>
				<ellipse transform="matrix(0.1869 -0.9824 0.9824 0.1869 54.1476 143.427)" cx="113.7" cy="39" rx="1.2" ry="1.2"/>
			</g>
			<g>
				<ellipse transform="matrix(0.5595 -0.8288 0.8288 0.5595 30.9877 122.2688)" cx="130.5" cy="32" rx="1.2" ry="1.2"/>
			</g>
		</g>
	</g>
	<line class="st1" x1="120.6" y1="38.6" x2="119.8" y2="35.7"/>
	<g>
		<g>
			<path class="st2" d="M109,33.2c2.2,1.7,5,2.7,8.1,2.7c7.4,0,13.5-6,13.5-13.5c0-7-5.4-12.8-12.3-13.4"/>
			<g>
				<ellipse transform="matrix(0.631 -0.7757 0.7757 0.631 14.4259 96.8902)" class="st0" cx="109.1" cy="33.3" rx="1.2" ry="1.2"/>
			</g>
			<g>
				
					<ellipse transform="matrix(5.043069e-02 -0.9987 0.9987 5.043069e-02 103.3135 126.7727)" class="st0" cx="118.3" cy="9.1" rx="1.2" ry="1.2"/>
			</g>
		</g>
	</g>
	<line class="st2" x1="126.7" y1="13.1" x2="128.9" y2="10.9"/>
	<g>
		<g>
			<path class="st1" d="M124.4,7.5c5.4,2.8,9.1,8.4,9.1,15c0,1.4-0.2,2.8-0.5,4.1l3.4,0.8c0.3-1.3,0.5-2.7,0.6-4.3
				c0-0.2,0-0.4,0-0.6"/>
			<g>
				<ellipse transform="matrix(0.4608 -0.8875 0.8875 0.4608 60.3867 114.5103)" cx="124.4" cy="7.6" rx="1.2" ry="1.2"/>
			</g>
			<g>
				<circle cx="137" cy="22.6" r="1.2"/>
			</g>
		</g>
	</g>
	<path class="st1" d="M130.1,36.9"/>
</g>
</svg>
