<svg xmlns="http://www.w3.org/2000/svg" width="1.97in" height="2.06in" viewBox="0 0 142 148.02"><title>autopilot_logo</title><path d="M37.26,68.58l-1.91-7.74H26.93l-2.23,7.74h-3l7.52-25.45h4.64l6.48,25.45Zm-4.86-20-.83-3.92h-.11l-1,3.85-3,10h7.31Z" transform="translate(-5.15 -1.98)"/><path d="M50.5,69c-5,0-8.42-1.69-8.42-9.07V43.13h3V59.73c0,5.58,2.2,6.73,5.4,6.73,3.56,0,5.44-1.48,5.44-7.42V43.13h2.84V59C58.78,67.18,55.08,69,50.5,69Z" transform="translate(-5.15 -1.98)"/><path d="M71.13,45.61v23h-3v-23H60.77V43.13H78.55v2.48Z" transform="translate(-5.15 -1.98)"/><path d="M88.59,69c-6.95,0-8.31-5.44-8.31-13.21,0-8.1,2.09-13,9-13,6.7,0,8.24,5.62,8.24,13.1C97.48,63.72,95.86,69,88.59,69ZM89,45.22c-4.54,0-5.72,4.39-5.72,10.55,0,5.65.54,10.8,5.44,10.8,5.44,0,5.83-4.9,5.83-10.73S93.74,45.22,89,45.22Z" transform="translate(-5.15 -1.98)"/><path d="M11.34,93.4H8.13v9.18h-3V77.13h8.06c5,0,7.92,2.81,7.92,8C21.13,89.62,18.32,93.4,11.34,93.4Zm1-13.86H8.13V90.92h3.42c4,0,6.48-1.62,6.48-5.65S16.38,79.54,12.35,79.54Z" transform="translate(-5.15 -1.98)" style="fill:red"/><path d="M22.68,102.58v-2.45h7.06V79.54H22.68V77.13h17v2.41h-7v20.59h7v2.45Z" transform="translate(-5.15 -1.98)" style="fill:red"/><path d="M45.29,102.58V77.13h3V100H58.86v2.56Z" transform="translate(-5.15 -1.98)"/><path d="M69.37,103c-6.95,0-8.31-5.44-8.31-13.21,0-8.1,2.09-13,9-13,6.7,0,8.24,5.62,8.24,13.1C78.26,97.72,76.64,103,69.37,103Zm.36-23.79c-4.54,0-5.72,4.39-5.72,10.55,0,5.65.54,10.8,5.44,10.8,5.44,0,5.83-4.9,5.83-10.73S74.52,79.22,69.73,79.22Z" transform="translate(-5.15 -1.98)"/><path d="M90.36,79.62v23h-3v-23H80V77.13H97.77v2.48Z" transform="translate(-5.15 -1.98)"/><path d="M23.42,130.77A73.48,73.48,0,1,0,55,4.55" transform="translate(-5.15 -1.98)" style="fill:none;stroke:#888;stroke-miterlimit:10;stroke-width:0.5px"/><path d="M26.69,127.12A68.58,68.58,0,1,0,56.2,9.31h0" transform="translate(-5.15 -1.98)" style="fill:none;stroke:#888;stroke-miterlimit:10;stroke-width:0.5px"/><path d="M30,123.47a63.68,63.68,0,1,0,27.4-109.4h0" transform="translate(-5.15 -1.98)" style="fill:none;stroke:#888;stroke-miterlimit:10;stroke-width:0.5px"/><path d="M33.23,119.82a58.78,58.78,0,1,0,25.29-101h0" transform="translate(-5.15 -1.98)" style="fill:none;stroke:#888;stroke-miterlimit:10;stroke-width:0.5px"/><path d="M36.49,116.16A53.88,53.88,0,1,0,59.68,23.6h0" transform="translate(-5.15 -1.98)" style="fill:none;stroke:#888;stroke-miterlimit:10;stroke-width:0.5px"/><path d="M39.76,112.51A49,49,0,1,0,60.84,28.36h0" transform="translate(-5.15 -1.98)" style="fill:none;stroke:#888;stroke-miterlimit:10;stroke-width:0.5px"/><path d="M43,108.86A44.09,44.09,0,1,0,62,33.12" transform="translate(-5.15 -1.98)" style="fill:none;stroke:#888;stroke-miterlimit:10;stroke-width:0.5px"/><path d="M109.53,12.52A73.76,73.76,0,0,0,56.19,4.28" transform="translate(-5.15 -1.98)" style="fill:none;stroke:#000;stroke-miterlimit:10"/><circle cx="109.46" cy="12.51" r="1.24" transform="translate(39.72 99.78) rotate(-60.62)"/><circle cx="56.25" cy="4.29" r="1.24" transform="translate(-4.82 9.75) rotate(-11.94)"/><path d="M129.28,29.39a74,74,0,0,0-10-10.06" transform="translate(-5.15 -1.98)" style="fill:none;stroke:#000;stroke-miterlimit:10"/><circle cx="129.23" cy="29.36" r="1.24" transform="translate(6.28 88.08) rotate(-40.06)"/><circle cx="119.29" cy="19.39" r="1.24" transform="translate(22.2 95.85) rotate(-49.7)"/><path d="M139.87,88.66A69.06,69.06,0,0,0,136.8,52.2" transform="translate(-5.15 -1.98)" style="fill:none;stroke:#000;stroke-miterlimit:10"/><circle cx="139.86" cy="88.59" r="1.24" transform="translate(22.91 208.73) rotate(-79.87)"/><circle cx="136.78" cy="52.28" r="1.24" transform="translate(-14.68 44.51) rotate(-18.65)"/><line x1="52.21" y1="12.09" x2="52.21" y2="12.09" style="fill:none;stroke:#000;stroke-miterlimit:10"/><path d="M72.43,12.28" transform="translate(-5.15 -1.98)" style="fill:none;stroke:#000;stroke-miterlimit:10"/><path d="M91.64,15.23a63.22,63.22,0,0,0-9.1-2.15L83,8.2A69.31,69.31,0,0,0,57.35,9" transform="translate(-5.15 -1.98)" style="fill:none;stroke:#000;stroke-miterlimit:10"/><circle cx="91.57" cy="15.25" r="1.24" transform="matrix(0.28, -0.96, 0.96, 0.28, 46.2, 96.93)"/><circle cx="57.41" cy="9.05" r="1.24" transform="translate(-5.78 10.09) rotate(-11.94)"/><path d="M114.94,123.44a63.55,63.55,0,0,0,21.19-46.27" transform="translate(-5.15 -1.98)" style="fill:none;stroke:#000;stroke-miterlimit:10"/><circle cx="114.97" cy="123.38" r="1.24" transform="translate(-58.26 107.59) rotate(-42.32)"/><circle cx="136.1" cy="77.23" r="1.24" transform="translate(49.99 209.16) rotate(-88.41)"/><path d="M34.11,120.59a58.78,58.78,0,1,0,25.56-102" transform="translate(-5.15 -1.98)" style="fill:none;stroke:#000;stroke-miterlimit:10"/><circle cx="34.19" cy="120.6" r="1.24" transform="translate(-85.94 68.7) rotate(-50.7)"/><circle cx="59.73" cy="18.58" r="1.24" transform="translate(-7.7 10.78) rotate(-11.94)"/><line x1="54.53" y1="21.62" x2="54.53" y2="21.62" style="fill:none;stroke:#000;stroke-miterlimit:10"/><path d="M113.68,41.29A53.79,53.79,0,0,0,72.43,22.08q-2.69,0-5.32.26" transform="translate(-5.15 -1.98)" style="fill:none;stroke:#000;stroke-miterlimit:10"/><circle cx="113.63" cy="41.25" r="1.24" transform="translate(-4.78 81.53) rotate(-40.41)"/><circle cx="67.17" cy="22.36" r="1.24" transform="translate(-6.88 4.12) rotate(-5.13)"/><path d="M122.34,55.58" transform="translate(-5.15 -1.98)" style="fill:none;stroke:#000;stroke-miterlimit:10"/><path d="M45.74,122.83a53.92,53.92,0,0,0,67.44-11.55l3.66,3.26" transform="translate(-5.15 -1.98)" style="fill:none;stroke:#000;stroke-miterlimit:10"/><circle cx="45.8" cy="122.84" r="1.24" transform="translate(-88.95 101.12) rotate(-60.89)"/><path d="M36.49,116.16" transform="translate(-5.15 -1.98)" style="fill:none;stroke:#000;stroke-miterlimit:10"/><line x1="55.69" y1="26.38" x2="55.69" y2="26.38" style="fill:none;stroke:#000;stroke-miterlimit:10"/><path d="M72.43,27" transform="translate(-5.15 -1.98)" style="fill:none;stroke:#000;stroke-miterlimit:10"/><path d="M61.4,123.75a49.08,49.08,0,0,0,52.74-22" transform="translate(-5.15 -1.98)" style="fill:none;stroke:#000;stroke-miterlimit:10"/><circle cx="61.47" cy="123.74" r="1.24" transform="translate(-77.83 154.83) rotate(-77.43)"/><circle cx="114.09" cy="101.76" r="1.24" transform="translate(-37.95 142.13) rotate(-57.81)"/><path d="M39.76,112.51" transform="translate(-5.15 -1.98)" style="fill:none;stroke:#000;stroke-miterlimit:10"/><path d="M62,33.12" transform="translate(-5.15 -1.98)" style="fill:none;stroke:red;stroke-miterlimit:10"/><path d="M43.91,109.63A44.1,44.1,0,1,0,73.61,31.9" transform="translate(-5.15 -1.98)" style="fill:none;stroke:red;stroke-miterlimit:10"/><circle cx="43.99" cy="109.64" r="1.24" transform="translate(-73.87 72.27) rotate(-50.7)" style="fill:red"/><circle cx="73.67" cy="31.94" r="1.24" transform="matrix(0.05, -1, 1, 0.05, 32.9, 101.93)" style="fill:red"/><path d="M144,59.34" transform="translate(-5.15 -1.98)" style="fill:none;stroke:#000;stroke-miterlimit:10;stroke-width:0.25px"/><path d="M74.27,76" transform="translate(-5.15 -1.98)" style="fill:none;stroke:#000;stroke-miterlimit:10;stroke-width:0.25px"/><path d="M36.49,140.12" transform="translate(-5.15 -1.98)" style="fill:none;stroke:#000;stroke-miterlimit:10;stroke-width:0.25px"/><line x1="98.89" y1="43.25" x2="102.3" y2="39.73" style="fill:none;stroke:red;stroke-miterlimit:10"/><path d="M92.85,31.43A49.09,49.09,0,0,1,120,88l4.74,1.24A54,54,0,0,0,126.33,76q0-2.08-.16-4.12" transform="translate(-5.15 -1.98)" style="fill:none;stroke:#000;stroke-miterlimit:10"/><circle cx="92.9" cy="31.48" r="1.24" transform="translate(19.51 99.96) rotate(-64.64)"/><circle cx="126.14" cy="71.93" r="1.24" transform="translate(-8.49 4.22) rotate(-2.78)"/><line x1="93.32" y1="26.8" x2="95.55" y2="22.43" style="fill:none;stroke:#000;stroke-miterlimit:10"/><path d="M50.12,146.05a73.44,73.44,0,0,1-25.81-14.5" transform="translate(-5.15 -1.98)" style="fill:none;stroke:#000;stroke-miterlimit:10"/><circle cx="50.07" cy="146.01" r="1.24" transform="translate(-109.42 145.63) rotate(-71.66)"/><circle cx="24.37" cy="131.57" r="1.24" transform="translate(-96.9 63.11) rotate(-49.71)"/><path d="M145.93,77.17a73.28,73.28,0,0,1-21.63,50.91" transform="translate(-5.15 -1.98)" style="fill:none;stroke:#000;stroke-miterlimit:10"/><circle cx="145.91" cy="77.23" r="1.24" transform="translate(59.78 219.11) rotate(-88.52)"/><circle cx="124.33" cy="128.02" r="1.24" transform="translate(-59.27 124.59) rotate(-45.37)"/><path d="M144.77,62.88A73.11,73.11,0,0,0,133,34.36l-4.08,2.71A68.89,68.89,0,0,0,101.3,13.73l.38.18,2-4.49" transform="translate(-5.15 -1.98)" style="fill:none;stroke:#000;stroke-miterlimit:10"/><circle cx="144.74" cy="62.83" r="1.24" transform="translate(-14.41 26.5) rotate(-10.89)"/><path d="M138.89,58.91l-4.74,1.26a63.85,63.85,0,0,0-33-41.06" transform="translate(-5.15 -1.98)" style="fill:none;stroke:#000;stroke-miterlimit:10"/><circle cx="101.2" cy="19.16" r="1.24" transform="translate(32.55 98.27) rotate(-62.65)"/><path d="M26.69,127.12" transform="translate(-5.15 -1.98)" style="fill:none;stroke:#000;stroke-miterlimit:10"/><path d="M130.87,120.59l-3.86-3a68.5,68.5,0,0,1-54.58,27q-1.36,0-2.7-.05" transform="translate(-5.15 -1.98)" style="fill:none;stroke:#000;stroke-miterlimit:10"/><circle cx="69.79" cy="144.53" r="1.24" transform="translate(-81.76 208.3) rotate(-88.41)"/><path d="M115.12,123.28" transform="translate(-5.15 -1.98)" style="fill:none;stroke:#000;stroke-miterlimit:10"/><path d="M30,123.47" transform="translate(-5.15 -1.98)" style="fill:none;stroke:#000;stroke-miterlimit:10"/><path d="M102,137.93l-2.17-4.39A63.9,63.9,0,0,1,50.94,136" transform="translate(-5.15 -1.98)" style="fill:none;stroke:#000;stroke-miterlimit:10"/><circle cx="51.02" cy="135.96" r="1.24" transform="translate(-99.23 139.91) rotate(-71.77)"/><path d="M34.2,133a68.21,68.21,0,0,0,26,10.55l-1,4.8a74,74,0,0,0,37-2.72" transform="translate(-5.15 -1.98)" style="fill:none;stroke:#000;stroke-miterlimit:10"/><circle cx="34.26" cy="132.98" r="1.24" transform="translate(-100.76 86.4) rotate(-56.6)"/><circle cx="96.1" cy="145.56" r="1.24" transform="translate(-44.12 33.22) rotate(-17.32)"/><line x1="78.72" y1="126.92" x2="77.46" y2="121.96" style="fill:none;stroke:#000;stroke-miterlimit:10"/></svg>