<svg id="Layer_1" data-name="Layer 1" xmlns="http://www.w3.org/2000/svg" viewBox="0 0 43.92 44.26">
    <defs>
        <style>
        .cls-1,
        .cls-2,
        .cls-3 {
            fill: none;
            stroke-miterlimit: 10;
        }

        .cls-1 {
            stroke: #888;
        }

        .cls-2 {
            stroke: #000;
            stroke-width: 2px;
        }

        .cls-3 {
            stroke: red;
            stroke-width: 3px;
        }

        @media (prefers-color-scheme: dark) {
        	.cls-2 {
        		stroke: #fff
        	}
        	.cls-1 {
        		stroke: #bbb;
        	}
        }
        </style>
    </defs>
    <path class="cls-1" d="M7.7,37.79A20.57,20.57,0,1,0,21.42,1.88a21.08,21.08,0,0,0-4.87.58h0" />
    <path class="cls-1" d="M13.1,32.2a13.47,13.47,0,1,0,9-23.51,13.93,13.93,0,0,0-3.19.38h0" />
    <path class="cls-2" d="M37.45,9.56a20.54,20.54,0,0,0-16-7.68A22.47,22.47,0,0,0,18.94,2" />
    <path class="cls-2" d="M10.84,40.11A20.56,20.56,0,0,0,37,35.93" />
    <path class="cls-2" d="M19.26,35.51a12.36,12.36,0,0,0,3.35.42c4.76-.12,9.14-3.6,11.1-7a16.1,16.1,0,0,0,1.43-3.5" />
    <line class="cls-2" x1="25.73" y1="35.38" x2="24.05" y2="28.75" />
    <path class="cls-1" d="M17.53,27.27a6.89,6.89,0,1,0,4.59-12,6.79,6.79,0,0,0-1.63.19" />
    <path class="cls-3" d="M17.53,27.27a6.89,6.89,0,1,0,4.59-12" />
    <line class="cls-3" x1="27.65" y1="18" x2="32.38" y2="13.19" />
    <path class="cls-2" d="M27.93,10.08a12.61,12.61,0,0,1,7.62,12.08,13.18,13.18,0,0,1-.41,3.29l6.33,1.87a15.3,15.3,0,0,0,.5-3.44,28,28,0,0,0-.15-4.1,25.16,25.16,0,0,0-1.28-4.93" />
</svg>