<svg id="Layer_1" data-name="Layer 1" xmlns="http://www.w3.org/2000/svg" viewBox="0 0 43.92 44.26">
    <defs>
        <style>
        .cls-1,
        .cls-2,
        .cls-3 {
            fill: none;
            stroke-miterlimit: 10;
        }

        .cls-1 {
            stroke: #888;
            stroke-width: 0.5px;
        }

        .cls-2 {
            stroke: #000;
        }

        .cls-3 {
            stroke: red;
        }

        .cls-4 {
            fill: red;
        }

        @media (prefers-color-scheme: dark) {
        	.cls-2 {
        		stroke: #fff;
        	}
        }
        </style>
    </defs>
    <path class="cls-1" d="M7.7,37.79A20.57,20.57,0,1,0,21.42,1.88a21.08,21.08,0,0,0-4.87.58h0" />
    <path class="cls-1" d="M13.1,32.2a13.47,13.47,0,1,0,9-23.51,13.93,13.93,0,0,0-3.19.38h0" />
    <path class="cls-2" d="M36.68,8.67A20.5,20.5,0,0,0,21.42,1.88c-.44,0-.87,0-1.3.05" />
    <path d="M37.54,7.81a1.24,1.24,0,1,1-1.75-.09A1.24,1.24,0,0,1,37.54,7.81Z" />
    <path d="M20.11.72a1.24,1.24,0,1,0,1.31,1.16A1.24,1.24,0,0,0,20.11.72Z" />
    <path class="cls-2" d="M11.87,40.69a20.56,20.56,0,0,0,24.3-3.89" />
    <path d="M11.38,41.78a1.24,1.24,0,1,1,1.13-2.21,1.24,1.24,0,1,1-1.13,2.21Z" />
    <path d="M37,37.68a1.24,1.24,0,1,0-1.76,0A1.23,1.23,0,0,0,37,37.68Z" />
    <path class="cls-2" d="M20.42,35.76a11.3,11.3,0,0,0,2.19.17,13.21,13.21,0,0,0,10.47-6" />
    <path d="M20.24,37a1.24,1.24,0,1,1,1.46-1A1.25,1.25,0,0,1,20.24,37Z" />
    <path d="M34.06,30.67a1.24,1.24,0,1,0-1.72.35A1.24,1.24,0,0,0,34.06,30.67Z" />
    <line class="cls-2" x1="25.73" y1="35.38" x2="24.05" y2="28.75" />
    <path class="cls-1" d="M17.53,27.27a6.89,6.89,0,1,0,4.59-12,6.79,6.79,0,0,0-1.63.19" />
    <path class="cls-3" d="M18.47,28A6.89,6.89,0,1,0,23.3,15.34" />
    <path class="cls-4" d="M17.78,29a1.24,1.24,0,1,1,1.74-.26A1.24,1.24,0,0,1,17.78,29Z" />
    <path class="cls-4" d="M23.48,14.13a1.24,1.24,0,0,0-1.36,1.11,1.24,1.24,0,1,0,2.47.25A1.23,1.23,0,0,0,23.48,14.13Z" />
    <line class="cls-3" x1="27.65" y1="18" x2="32.38" y2="13.19" />
    <path class="cls-2" d="M29,10.6a12.65,12.65,0,0,1,6.56,11.56,13.18,13.18,0,0,1-.41,3.29l6.33,1.87a18,18,0,0,0,.5-3.44,1.93,1.93,0,0,1,0-.24" />
    <path d="M28.46,11.76a1.24,1.24,0,1,1,1.67-.53A1.24,1.24,0,0,1,28.46,11.76Z" />
    <circle cx="41.97" cy="23.7" r="1.24" />
</svg>