<?xml version="1.0" encoding="utf-8"?>
<!-- Generator: Adobe Illustrator 23.0.3, SVG Export Plug-In . SVG Version: 6.00 Build 0)  -->
<svg version="1.1" id="Layer_1" xmlns="http://www.w3.org/2000/svg" xmlns:xlink="http://www.w3.org/1999/xlink" x="0px" y="0px"
	 viewBox="0 0 75 75" style="enable-background:new 0 0 75 75;" xml:space="preserve">
<style type="text/css">
	.st0{fill:#FFFFFF;}
	.st1{fill:#FF3030;}
</style>
<rect class="st0" width="75" height="75"/>
<title>icon_terminal</title>
<g>
	<g id="Layer_1-2">
		<path d="M55.3,67.5h-0.7v-0.6c0-1.4-1.1-2.4-2.5-2.4h-2.2c-0.5,0-1,0.1-1.4,0.4c-0.4-0.3-0.9-0.4-1.4-0.4h-2.2
			c-0.5,0-1,0.1-1.4,0.4c-0.4-0.3-0.9-0.4-1.4-0.4h-2.2c-1.3,0-2.4,1.1-2.4,2.4v0.6h-2.9v-0.6c0-1.3-1.1-2.4-2.4-2.4H30
			c-0.5,0-1,0.2-1.4,0.4c-0.4-0.3-0.9-0.4-1.4-0.4H25c-0.5,0-1,0.1-1.4,0.4c-0.4-0.3-0.9-0.4-1.4-0.4H10c-0.5,0-1,0.2-1.4,0.4
			c-0.4-0.3-0.9-0.4-1.4-0.4H5c-1.4,0-2.4,1.1-2.5,2.4v0.6H1.8c-1,0-1.8,0.8-1.8,1.8v3.9c0,1,0.8,1.8,1.8,1.8h8.7
			c0.6,0.1,1.1-0.4,1.2-1c0.1-0.6-0.4-1.1-1-1.2c-0.1,0-0.1,0-0.2,0H2.2v-3.1h52.7v3.1H15.5c-0.6-0.1-1.1,0.4-1.2,1
			c-0.1,0.6,0.4,1.1,1,1.2c0.1,0,0.1,0,0.2,0h39.8c1,0,1.8-0.8,1.8-1.8l0,0v-3.9C57.1,68.3,56.3,67.5,55.3,67.5z M7.5,67.5H4.8v-0.6
			c0-0.1,0.1-0.2,0.2-0.2h2.2c0.1,0,0.3,0.1,0.3,0.2c0,0,0,0,0,0L7.5,67.5z M22.5,67.5H9.7v-0.6c0-0.1,0.1-0.2,0.2-0.2h12.3
			c0.1,0,0.2,0.1,0.2,0.2L22.5,67.5L22.5,67.5z M27.4,67.5h-2.7v-0.6c0-0.1,0.1-0.2,0.2-0.2h2.2c0.1,0,0.3,0.1,0.3,0.2c0,0,0,0,0,0
			L27.4,67.5L27.4,67.5z M32.4,67.5h-2.7v-0.6c0-0.1,0.1-0.2,0.2-0.2h2.2c0.1,0,0.2,0.1,0.2,0.2L32.4,67.5L32.4,67.5z M42.4,67.5
			h-2.8v-0.6c0-0.1,0.1-0.2,0.2-0.2h2.2c0.1,0,0.2,0.1,0.2,0.2L42.4,67.5z M47.4,67.5h-2.8v-0.6c0-0.1,0.1-0.3,0.2-0.3c0,0,0,0,0,0
			h2.2c0.1,0,0.3,0.1,0.3,0.2c0,0,0,0,0,0L47.4,67.5L47.4,67.5z M52.4,67.5h-2.8v-0.6c0-0.1,0.1-0.2,0.2-0.2h2.2
			c0.1,0,0.2,0.1,0.2,0.2L52.4,67.5z"/>
		<path d="M69.9,63.9h-6.5c-2.8,0-5,2.2-5,5v4.3c0,1,0.8,1.8,1.8,1.8h12.8c1,0,1.8-0.8,1.9-1.8c0,0,0,0,0,0v-4.3
			C75,66.2,72.8,63.9,69.9,63.9C70,63.9,70,63.9,69.9,63.9z M72.8,72.8H60.7v-3.9c0-1.6,1.3-2.8,2.8-2.8h6.4c1.6,0,2.8,1.3,2.8,2.8
			C72.8,68.9,72.8,72.8,72.8,72.8z"/>
		<path d="M11,51.6h17.1v2.8h-2.5c-1.9,0-3.5,1.5-3.5,3.5v1.9c0,0.9,0.8,1.7,1.7,1.7h16.1c0.6,0,1.1-0.5,1.1-1.1
			c0-0.6-0.5-1.1-1.1-1.1H24.4v-1.4c0-0.7,0.6-1.3,1.3-1.3h23.6c0.7,0,1.3,0.6,1.3,1.3v1.4h-5.4c-0.6,0-1.1,0.5-1.1,1.1
			c0,0.6,0.5,1.1,1.1,1.1h6c0.9,0,1.7-0.8,1.7-1.7v-1.9c0-1.9-1.5-3.5-3.5-3.5h-2.5v-2.8h17.1c2.3,0,4.1-1.9,4.1-4.1l0.1-43.3
			C68.1,1.9,66.3,0,64,0H11C8.7,0,6.9,1.8,6.9,4.1c0,0,0,0,0,0v43.3C6.9,49.7,8.7,51.6,11,51.6z M44.6,54.3H30.3v-2.8h14.3
			L44.6,54.3z M9.1,4.1c0-1.1,0.9-1.9,1.9-1.9c0,0,0,0,0,0h52.8c1.1,0,1.9,0.9,1.9,1.9v6.2H9.1V4.1z M9.1,12.5h56.8v29.5H9.1
			L9.1,12.5z M9.1,44.3h56.8v3.2c0,1.1-0.9,1.9-1.9,1.9H11c-1.1,0-1.9-0.8-1.9-1.9c0,0,0,0,0,0L9.1,44.3z"/>
		<path class="st1" d="M13.6,3.4c-1.6,0-2.8,1.3-2.8,2.8s1.3,2.8,2.8,2.8s2.8-1.3,2.8-2.8C16.4,4.7,15.2,3.4,13.6,3.4z M13.6,7.5
			c-0.7,0-1.2-0.6-1.2-1.2S12.9,5,13.6,5s1.2,0.6,1.2,1.2S14.3,7.5,13.6,7.5z"/>
		<path d="M20.3,3.4c-1.6,0-2.8,1.3-2.8,2.8s1.3,2.8,2.8,2.8s2.8-1.3,2.8-2.8l0,0C23.1,4.7,21.8,3.4,20.3,3.4z M20.3,7.5
			c-0.7,0-1.2-0.6-1.2-1.2S19.6,5,20.3,5s1.2,0.6,1.2,1.2S21,7.5,20.3,7.5z"/>
		<path d="M26.9,3.4c-1.6,0-2.8,1.3-2.8,2.8s1.3,2.8,2.8,2.8s2.8-1.3,2.8-2.8l0,0C29.7,4.7,28.5,3.4,26.9,3.4z M26.9,7.5
			c-0.7,0-1.2-0.6-1.2-1.2S26.2,5,26.9,5s1.2,0.6,1.2,1.2C28.2,6.9,27.6,7.5,26.9,7.5z"/>
	</g>
</g>
</svg>
