<svg xmlns="http://www.w3.org/2000/svg" viewBox="0 0 25 25"><defs><style>.cls-1{fill:red;}.cls-2{fill:#fff;}</style></defs><title>icon_data</title><g id="Layer_2" data-name="Layer 2"><g id="Layer_1-2" data-name="Layer 1"><path d="M25,8V23.45a1.33,1.33,0,0,1-.46,1.09,1.46,1.46,0,0,1-1.09.46H1.54a1.36,1.36,0,0,1-1.09-.46A1.49,1.49,0,0,1,0,23.45V1.55A1.36,1.36,0,0,1,.45.46,1.67,1.67,0,0,1,1.54,0h15.1a3.64,3.64,0,0,1,1.45.32,4.65,4.65,0,0,1,1.23.77l4.54,4.56a4.12,4.12,0,0,1,.78,1.23A3.24,3.24,0,0,1,25,8.33"/><rect class="cls-1" x="3" y="15" width="17" height="8"/><rect class="cls-2" x="5" y="17" width="13" height="6"/><path class="cls-2" d="M14,8V2.48a.49.49,0,0,0-.13-.35A.49.49,0,0,0,13.52,2h-3a.49.49,0,0,0-.35.13.49.49,0,0,0-.13.35v5a.45.45,0,0,0,.48.48h3A.45.45,0,0,0,14,7.52"/><path class="cls-2" d="M4,2H1V23.57l2-.46V16.49a1.25,1.25,0,0,1,.47-1A1.52,1.52,0,0,1,4.58,15H18.42a1.41,1.41,0,0,1,1.12.44,1.38,1.38,0,0,1,.46,1V23h3V8.29a1.63,1.63,0,0,0-.17-.64,1.47,1.47,0,0,0-.31-.55L18.14,2.52a1.34,1.34,0,0,0-.53-.32A2.1,2.1,0,0,0,17,2V9.44a1.33,1.33,0,0,1-.47,1.1,1.75,1.75,0,0,1-1.14.46H5.61a1.44,1.44,0,0,1-1.14-.46A1.47,1.47,0,0,1,4,9.44V2"/></g></g></svg>