<?xml version="1.0" encoding="utf-8"?>
<!-- Generator: Adobe Illustrator 23.0.3, SVG Export Plug-In . SVG Version: 6.00 Build 0)  -->
<svg version="1.1" id="Layer_1" xmlns="http://www.w3.org/2000/svg" xmlns:xlink="http://www.w3.org/1999/xlink" x="0px" y="0px"
	 viewBox="0 0 86.4 86.4" style="enable-background:new 0 0 86.4 86.4;" xml:space="preserve">
<style type="text/css">
	.st0{fill:#FFFFFF;}
	.st1{fill:#010101;}
	.st2{fill:#EF3A37;}
</style>
<rect y="0.1" class="st0" width="86.3" height="86.3"/>
<title>icon_pilot</title>
<g>
	<g id="Layer_1-2">
		<path class="st1" d="M4.3,28.8V5.1c0-3.4,1.6-5,5.1-5h67.5c3.6,0,5.2,1.6,5.2,5.2v16.2c0.1,0.1,0.2,0.1,0.3,0.2
			c3.5,0.3,4,0.8,4,4.3v13.6c0,2.8-0.9,3.7-3.7,3.8l-0.7,0.1v32.2c0,3.6-1.6,5.2-5.2,5.2H63.4c0,0.5,0,1,0,1.5c0,2.4-2,4.3-4.3,4.2
			c0,0,0,0,0,0c-2.7,0-5.4,0-8.1,0c-3,0-4.7-1.7-4.7-4.6c0-0.3,0-0.7-0.1-1h-2.7c-0.6,4-0.8,4.2-5,4.2H26.8c-2.8,0-3.6-0.8-3.8-3.7
			c0-0.2,0-0.3-0.1-0.6H9.1c-3.1,0-4.8-1.7-4.8-4.8v-24c-0.6,0-1,0-1.5,0c-1.5,0-2.8-1.2-2.8-2.7c0,0,0,0,0,0c0-5.8,0-11.7,0-17.5
			c0-1.5,1.2-2.7,2.7-2.7c0,0,0,0,0,0C3.2,28.8,3.7,28.8,4.3,28.8z M18.8,50.4h2.5c1,0,1.6,0.4,1.7,1.4s-0.7,1.5-1.7,1.5h-2.5v2.9
			h2.3c1,0,1.9,0.2,1.9,1.4c0.1,1-0.6,1.5-2,1.5h-8.5c-2.2,0-2.4-0.3-2.4-2.4v-4.7H7.3c0,0.2-0.1,0.4-0.1,0.6c0,7.8,0,15.6,0,23.5
			c0,1.3,0.5,1.8,1.8,1.8h13.1c0.3,0,0.6-0.1,0.9-0.1c0-3.2,0-6.4,0-9.5c0-2.2,1.1-3.3,3.3-3.3c4.6,0,9.1,0,13.7,0
			c1.6-0.2,3,0.9,3.2,2.5c0,0.2,0,0.5,0,0.7c0,2.8,0,5.6,0,8.4v1.3h2.9v-1.4c0-6.1,0-12.2,0-18.3c0-2.3,1-3.3,3.3-3.3h10.4
			c2.6,0,3.6,1,3.6,3.6c0,6,0,12,0,18c0,0.4,0,0.9,0.1,1.4H77c1.8,0,2.2-0.4,2.2-2.2V43.2H66.8c-2.3,0-3.4-1-3.4-3.4
			c0-4.9,0-9.9,0-14.8c0-2.4,1-3.4,3.5-3.4h11c0.4,0,0.9,0,1.4-0.1V5.2c0-2-0.3-2.3-2.3-2.3H9.4c-1.9,0-2.2,0.4-2.2,2.2v22.3
			c0,0.4,0,0.9,0.1,1.3h2.8c0-1.8,0-3.6,0-5.3c0-1.3,0.4-1.8,1.7-1.8c3.2,0,6.4,0,9.6,0c1,0,1.6,0.4,1.6,1.5s-0.7,1.4-1.6,1.4
			s-1.7,0-2.5,0v2.9c0.9,0,1.7,0,2.4,0c1,0,1.7,0.4,1.7,1.5s-0.8,1.4-1.8,1.4h-2.4v2.9h2.5c1,0,1.7,0.4,1.7,1.5S22.3,36,21.4,36
			h-2.5v2.9c0.9,0,1.8,0,2.6,0s1.6,0.5,1.6,1.5s-0.6,1.4-1.6,1.4h-2.6v2.9h2.5c1,0,1.7,0.4,1.7,1.4s-0.7,1.5-1.7,1.5h-2.5
			C18.8,48.6,18.8,49.4,18.8,50.4z M83.4,40.2V24.6H66.3v15.7H83.4z M40.2,82V67.8H26V82H40.2z M60.4,72V57.7H49v14.2h4.2
			c0-0.4,0.1-0.7,0.1-1.1c0-1.5,0-3,0-4.6c-0.1-0.8,0.5-1.5,1.3-1.6s1.5,0.5,1.6,1.3c0,0.1,0,0.2,0,0.2c0,0.6,0,1.2,0,1.8V72H60.4z
			 M3,48.9h7V31.7H3V48.9z M49,75c0,2.5-0.1,4.9,0.1,7.2c0.2,0.6,0.7,1.1,1.3,1.3c2.9,0.1,5.8,0.1,8.8,0c0.6-0.1,1.1-0.6,1.3-1.2
			c0.1-2.4,0.1-4.8,0.1-7.3L49,75z M13.1,24.5v31.6h2.7V24.5H13.1z"/>
		<path class="st2" d="M43.2,51.8h-8.3c-1.6,0.2-3-0.9-3.2-2.5c0-0.2,0-0.5,0-0.7c0-3.1,0.1-6.2,0.1-9.3c0-2.4-0.1-4.7-0.1-7.1
			s1.1-3.4,3.4-3.4c5.4,0,10.9,0,16.3,0c2.3,0,3.4,1.1,3.4,3.3c0,3.1-0.1,6.3-0.2,9.4c0,2.4,0.1,4.7,0.1,7.1c0.2,1.6-1,3-2.5,3.2
			c-0.2,0-0.3,0-0.5,0C48.8,51.9,46,51.8,43.2,51.8z M51.8,49V31.8H34.6V49H51.8z"/>
		<path class="st1" d="M14.4,74.9c-2.4,0.1-4.3-1.8-4.4-4.2c0,0,0-0.1,0-0.1c0-2.4,1.9-4.3,4.2-4.4c2.4,0,4.3,1.9,4.4,4.3
			C18.7,72.9,16.8,74.8,14.4,74.9C14.5,74.9,14.5,74.9,14.4,74.9z M16,70.9v-0.6c-0.5-0.4-1-1-1.6-1.2c-0.8-0.2-1.4,0.4-1.5,1.3
			c-0.2,0.7,0.2,1.4,0.8,1.6c0.2,0.1,0.4,0.1,0.5,0C14.9,71.9,15.5,71.3,16,70.9L16,70.9z"/>
		<path class="st1" d="M14.3,14.4c-2.4,0-4.3-1.9-4.2-4.3c0,0,0-0.1,0-0.1c0-2.4,2-4.3,4.4-4.3c0,0,0,0,0,0c2.4,0.1,4.3,2,4.3,4.4
			C18.7,12.5,16.7,14.4,14.3,14.4C14.3,14.4,14.3,14.4,14.3,14.4z M16,10.3c0-0.2,0-0.4,0-0.6c-0.6-0.4-1.1-0.9-1.6-1
			C13.5,8.6,13,9.2,13,10.1s0.7,1.6,1.5,1.4C15,11.2,15.6,10.8,16,10.3z"/>
		<path class="st1" d="M76.3,70.6c-0.1,2.4-2.2,4.2-4.6,4.1c-2.2-0.1-4-1.9-4.1-4.2c-0.1-2.4,1.8-4.4,4.2-4.5s4.4,1.8,4.5,4.2
			C76.3,70.4,76.3,70.5,76.3,70.6z M73.6,70.8c0-0.2,0-0.4,0-0.6c-0.5-0.4-1-1-1.6-1.1c-0.7-0.1-1.3,0.4-1.4,1c0,0.1,0,0.2,0,0.3
			c0,0.9,0.6,1.6,1.4,1.4C72.6,71.8,73.1,71.2,73.6,70.8z"/>
		<path class="st1" d="M76.3,10.1c-0.1,2.4-2.1,4.2-4.5,4.1c-2.2-0.1-4-1.9-4.1-4.1c-0.1-2.4,1.7-4.4,4.1-4.5
			c2.4-0.1,4.4,1.7,4.5,4.1C76.3,9.8,76.3,9.9,76.3,10.1z M73.6,10.3c0-0.2,0-0.4,0-0.6c-0.6-0.4-1.1-1-1.7-1
			c-0.8-0.1-1.4,0.5-1.4,1.4s0.6,1.5,1.5,1.4C72.6,11.4,73.1,10.7,73.6,10.3z"/>
		<path class="st1" d="M34.9,5.6c0.4,0.5,1,1,1.1,1.6C36,8,35.5,8.6,34.6,8.6s-1.7-0.7-1.4-1.5c0.3-0.6,0.7-1.1,1.1-1.6L34.9,5.6z"
			/>
		<path class="st1" d="M51.5,8.8c-0.4-0.5-1-1-1.1-1.6c-0.2-0.8,0.5-1.4,1.3-1.5s1.7,0.7,1.5,1.4c-0.3,0.6-0.6,1.1-1.1,1.6L51.5,8.8
			z"/>
		<path class="st1" d="M30.4,7.5c-0.5,0.4-1.1,1-1.6,1c-0.9,0.1-1.4-0.6-1.4-1.5c0-0.7,0.5-1.3,1.1-1.3c0.1,0,0.2,0,0.3,0
			c0.6,0.1,1.1,0.8,1.6,1.2C30.4,7.2,30.4,7.3,30.4,7.5z"/>
		<path class="st1" d="M41.9,7.6c-0.5,0.4-1.1,0.9-1.7,1c-0.8,0.1-1.3-0.5-1.4-1.4s0.7-1.6,1.5-1.4C41,6.1,41.5,6.5,42,7
			C42,7.2,41.9,7.4,41.9,7.6z"/>
		<path class="st1" d="M24.7,7.4c-0.5,0.4-1,1-1.6,1.1c-0.8,0.2-1.4-0.4-1.5-1.3s0.6-1.7,1.4-1.5c0.6,0.2,1.2,0.6,1.6,1L24.7,7.4z"
			/>
		<path class="st1" d="M45.8,8.8c-0.4-0.5-1-1-1.1-1.6c-0.2-0.9,0.5-1.5,1.4-1.4s1.5,0.6,1.3,1.4c-0.1,0.6-0.7,1.1-1.1,1.6L45.8,8.8
			z"/>
		<path class="st1" d="M57.9,5.6c0.4,0.5,1,1,1,1.6c0.1,0.9-0.5,1.4-1.5,1.4c-0.7,0-1.3-0.5-1.3-1.1c0-0.1,0-0.2,0-0.3
			c0.1-0.6,0.7-1.1,1.1-1.6H57.9z"/>
		<path class="st1" d="M65,7.4c-0.5,0.4-1,1-1.6,1.1c-0.8,0.2-1.4-0.4-1.5-1.3c-0.1-0.7,0.3-1.3,1-1.5c0.1,0,0.3,0,0.4,0
			c0.6,0.1,1.1,0.7,1.6,1C65,7.1,65,7.2,65,7.4z"/>
		<path class="st1" d="M24.7,13.3c-0.5,0.4-1,1-1.6,1.1c-0.9,0.1-1.5-0.5-1.4-1.4s0.6-1.5,1.4-1.3c0.6,0.1,1.1,0.7,1.6,1.1
			C24.7,12.9,24.7,13.1,24.7,13.3z"/>
		<path class="st1" d="M29.1,11.4c0.4,0.5,1,1,1.1,1.6c0.1,0.9-0.5,1.4-1.4,1.4s-1.5-0.6-1.3-1.4c0.1-0.6,0.7-1.1,1-1.6L29.1,11.4z"
			/>
		<path class="st1" d="M40.7,11.4c0.4,0.5,0.9,1.1,1,1.6c0.1,0.7-0.3,1.3-1,1.4c-0.1,0-0.2,0-0.3,0c-0.9,0-1.6-0.6-1.4-1.5
			c0.1-0.6,0.7-1.1,1.1-1.6L40.7,11.4z"/>
		<path class="st1" d="M45.7,14.6c-0.4-0.5-1-1.1-1-1.6c-0.1-0.7,0.4-1.3,1-1.4c0.1,0,0.2,0,0.3,0c0.9,0,1.6,0.6,1.4,1.5
			c-0.1,0.6-0.7,1.1-1.1,1.6L45.7,14.6z"/>
		<path class="st1" d="M59.2,13.3c-0.5,0.4-1,1-1.6,1.1c-0.8,0.2-1.4-0.4-1.4-1.3s0.5-1.6,1.4-1.4c0.6,0.1,1.1,0.7,1.6,1.1
			L59.2,13.3z"/>
		<path class="st1" d="M63.7,11.3c0.4,0.5,1,1,1.1,1.6c0.1,0.7-0.3,1.3-1,1.4c-0.1,0-0.2,0-0.3,0c-0.9,0-1.6-0.6-1.4-1.4
			c0.1-0.6,0.7-1.1,1.1-1.6L63.7,11.3z"/>
		<path class="st1" d="M34.3,14.6c-0.4-0.5-1-1-1.2-1.6c-0.2-0.8,0.4-1.4,1.2-1.5s1.6,0.5,1.5,1.4c0,0.6-0.7,1.1-1,1.6L34.3,14.6z"
			/>
		<path class="st1" d="M51.6,14.6c-0.4-0.5-1-1-1.2-1.6c-0.1-0.7,0.3-1.3,0.9-1.4c0.1,0,0.2,0,0.3,0c0.9-0.1,1.6,0.5,1.5,1.4
			c-0.1,0.6-0.7,1.1-1,1.6L51.6,14.6z"/>
		<path class="st1" d="M73.5,34.6h2.6c1,0,1.6,0.5,1.6,1.5s-0.7,1.4-1.6,1.5c-1.8,0-3.6,0-5.4,0c-1,0-1.6-0.5-1.6-1.5
			c0-0.8,0.6-1.4,1.4-1.4c0.1,0,0.1,0,0.2,0C71.6,34.5,72.6,34.6,73.5,34.6z"/>
		<path class="st1" d="M73.5,27.4h2.7c0.8-0.1,1.4,0.4,1.5,1.2c0,0.1,0,0.1,0,0.2c0.1,0.7-0.5,1.4-1.2,1.5c-0.1,0-0.2,0-0.3,0
			c-1.9,0-3.8,0-5.7,0c-0.7,0.1-1.4-0.4-1.5-1.2c0-0.1,0-0.2,0-0.3c0-0.8,0.6-1.4,1.3-1.4c0.1,0,0.1,0,0.2,0L73.5,27.4z"/>
		<path class="st1" d="M34.6,74.9c-0.1-0.5-0.1-1.1,0-1.6c0.3-0.5,0.8-1.2,1.3-1.2c0.6,0.1,1.2,0.5,1.5,1.1c0.2,1.1,0.2,2.3,0,3.4
			c-0.2,0.6-0.7,1-1.3,1.1c-0.6-0.2-1.1-0.6-1.4-1.2C34.4,76,34.6,75.4,34.6,74.9L34.6,74.9z"/>
		<path class="st1" d="M31.6,74.8c0,0.5,0,1,0,1.5c0.1,0.7-0.5,1.4-1.2,1.5c-0.1,0-0.2,0-0.2,0c-0.7,0-1.3-0.5-1.4-1.2
			c0-0.1,0-0.1,0-0.2c0-0.9,0-1.9,0-2.8c0-0.8,0.6-1.4,1.4-1.4c0.8,0,1.4,0.6,1.4,1.4c0,0,0,0,0,0C31.7,73.9,31.6,74.4,31.6,74.8z"
			/>
	</g>
</g>
</svg>
