<?xml version="1.0" encoding="utf-8"?>
<!-- Generator: Adobe Illustrator 23.0.3, SVG Export Plug-In . SVG Version: 6.00 Build 0)  -->
<svg version="1.1" id="Layer_1" xmlns="http://www.w3.org/2000/svg" xmlns:xlink="http://www.w3.org/1999/xlink" x="0px" y="0px"
	 viewBox="0 0 25.5 25.1" style="enable-background:new 0 0 25.5 25.1;" xml:space="preserve">
<style type="text/css">
	.st0{fill:#FFFFFF;}
	.st1{fill:#FF0000;}
</style>
<rect y="0" class="st0" width="25.5" height="25.1"/>
<title>icon_sound</title>
<g>
	<g id="Layer_1-2">
		<path d="M10.5,12.6v8c0,0.3-0.1,0.6-0.4,0.7c-0.3,0.1-0.6,0.1-0.7-0.2l-3-3.3c-0.5-0.5-1-1.1-1.5-1.6C4.8,16.1,4.7,16,4.6,16
			c-0.7,0-1.4,0-2.1-0.1c-1.3-0.2-2.3-1.2-2.5-2.5c-0.1-0.8,0-1.5,0.1-2.2c0.2-1.1,1.1-1.9,2.2-2C3,9,3.8,9.1,4.5,9.1
			C4.7,9,4.8,9,4.9,8.9c1.5-1.6,3-3.2,4.5-4.9c0.2-0.2,0.4-0.3,0.7-0.3c0.3,0.1,0.5,0.3,0.5,0.7V12.6L10.5,12.6z"/>
		<path d="M25.5,12.7c0,6.1-4.4,11.3-10.4,12.3c-0.4,0.1-0.7,0.1-1.1,0.1c-0.5,0-1-0.3-1-0.9c0,0,0,0,0,0c0-0.7,0.3-1.2,0.9-1.2
			c2.1-0.2,4-0.9,5.6-2.3c2.9-2.2,4.3-5.8,3.9-9.3c-0.5-4.8-4.1-8.6-8.9-9.3l-0.6-0.1c-0.6-0.1-1-0.5-0.9-1.2C13,0.4,13.4,0,13.9,0
			c0,0,0.1,0,0.1,0c5,0.4,9.2,3.7,10.8,8.4C25.3,9.8,25.6,11.2,25.5,12.7"/>
		<path d="M22.1,12.4c0.1,4.6-3.3,8.6-7.8,9.3c-0.2,0-0.4,0-0.6,0c-0.5-0.1-0.7-0.5-0.7-1.1c0-0.5,0.4-0.9,0.8-0.9
			c2.8-0.3,5.1-2.2,5.9-4.9c1.2-3.7-0.8-7.7-4.5-8.9c-0.4-0.1-0.9-0.2-1.3-0.3c-0.4,0-0.7-0.3-0.8-0.6c-0.2-0.4-0.1-0.9,0.2-1.2
			c0.2-0.2,0.6-0.3,0.9-0.3c4.2,0.5,7.5,3.8,8,8C22.1,11.8,22.1,12.2,22.1,12.4"/>
		<path class="st1" d="M18.7,12.5c0,2.7-1.9,5.1-4.5,5.7c-0.5,0.2-1-0.1-1.2-0.6c0,0,0,0,0-0.1c-0.2-0.5,0-1.1,0.5-1.3
			c0.1,0,0.1,0,0.2-0.1c1.5-0.3,2.6-1.5,2.9-3c0.3-1.9-0.9-3.8-2.8-4.2c-0.6-0.1-1-0.7-0.8-1.3c0-0.1,0.1-0.2,0.1-0.3
			c0.2-0.3,0.6-0.5,1-0.4c2.5,0.5,4.4,2.6,4.6,5.1C18.7,12.2,18.7,12.4,18.7,12.5"/>
	</g>
</g>
</svg>
