<?xml version="1.0" encoding="utf-8"?>
<!-- Generator: Adobe Illustrator 23.0.3, SVG Export Plug-In . SVG Version: 6.00 Build 0)  -->
<svg version="1.1" id="Layer_1" xmlns="http://www.w3.org/2000/svg" xmlns:xlink="http://www.w3.org/1999/xlink" x="0px" y="0px"
	 viewBox="0 0 298.7 512" style="enable-background:new 0 0 298.7 512;" xml:space="preserve">
<style type="text/css">
	.st0{fill:#FFFFFF;}
	.st1{fill:#FF0000;}
</style>
<rect x="-0.1" class="st0" width="298.7" height="512"/>
<title>icon_usb</title>
<circle class="st1" cx="53.3" cy="224" r="34.2"/>
<path d="M288,117.3h-64c-5.9,0-10.7,4.8-10.7,10.6c0,0,0,0,0,0v64c0,5.9,4.8,10.7,10.6,10.7c0,0,0,0,0,0h21.3v18.5
	c0,11.2-5.9,21.6-15.5,27.4L160,290.5V106.7h42.7c5.9,0,10.6-4.8,10.6-10.7c0-2-0.6-4-1.6-5.6L158.3,5c-3.2-5-9.7-6.4-14.7-3.3
	c-1.3,0.8-2.4,2-3.3,3.3L87,90.3c-3.1,5-1.6,11.6,3.4,14.7c1.7,1.1,3.6,1.6,5.6,1.6h42.7v248.5l-58.2-32.4
	c-10.2-5.6-16.5-16.4-16.5-28v-18.6c28.9-5.9,47.5-34.1,41.6-62.9c-5.9-28.9-34.1-47.5-62.9-41.6S-4.9,205.8,1,234.7
	c4.3,20.9,20.6,37.3,41.6,41.6v18.6c0,19.4,10.5,37.2,27.4,46.6l68.6,38.1v26.8c-28.9,5.9-47.5,34.1-41.6,62.9
	c5.9,28.9,34.1,47.5,62.9,41.6s47.5-34.1,41.6-62.9c-4.3-20.9-20.6-37.3-41.6-41.6v-91l80.8-48.5c16-9.7,25.8-27,25.9-45.7v-18.6
	H288c5.9,0,10.7-4.7,10.7-10.6c0,0,0,0,0-0.1v-64C298.7,122.1,293.9,117.3,288,117.3C288,117.3,288,117.3,288,117.3z M53.3,256
	c-17.7,0-32-14.3-32-32s14.3-32,32-32s32,14.3,32,32S71,256,53.3,256z M181.3,458.7c0,17.7-14.3,32-32,32s-32-14.3-32-32
	s14.3-32,32-32S181.3,441,181.3,458.7z M115.2,85.3l34.1-54.5l34.1,54.5H115.2z M277.3,181.3h-42.7v-42.7h42.7V181.3z"/>
</svg>
