<?xml version="1.0" encoding="utf-8"?>
<!-- Generator: Adobe Illustrator 23.0.3, SVG Export Plug-In . SVG Version: 6.00 Build 0)  -->
<svg version="1.1" id="Layer_1" xmlns="http://www.w3.org/2000/svg" xmlns:xlink="http://www.w3.org/1999/xlink" x="0px" y="0px"
	 viewBox="0 0 25.8 30.2" style="enable-background:new 0 0 25.8 30.2;" xml:space="preserve">
<style type="text/css">
	.st0{fill:#FFFFFF;}
	.st1{fill:none;stroke:#231F20;stroke-miterlimit:10;}
	.st2{fill:none;stroke:#231F20;stroke-linejoin:bevel;}
	.st3{fill:none;stroke:#FF0000;stroke-linejoin:bevel;}
</style>
<rect class="st0" width="25.8" height="30.2"/>
<title>icon_networking</title>
<g>
	<g id="Layer_2-2">
		<line class="st1" x1="1.5" y1="29.8" x2="24.2" y2="29.8"/>
		<polyline class="st1" points="13.7,9.6 16.6,16.9 21.9,29.8 		"/>
		<polyline class="st1" points="3.9,29.8 5.5,25.9 12.1,9.6 		"/>
		<polyline class="st2" points="9.1,16.9 20.3,25.9 5.5,25.9 16.6,16.9 		"/>
		<line class="st2" x1="10" y1="14.8" x2="15.8" y2="14.8"/>
		<path class="st2" d="M2.8,0.3c-3.3,4.6-3.1,10.9,0.6,15.3"/>
		<path class="st2" d="M22.3,15.6c3.7-4.3,3.9-10.6,0.6-15.3"/>
		<path class="st2" d="M5.6,2.3C3.2,5.6,3.3,10.2,6,13.4"/>
		<path class="st2" d="M19.7,13.4c2.7-3.2,2.9-7.7,0.4-11.1"/>
		<path class="st2" d="M8.3,4.2c-0.7,1-1.1,2.1-1.1,3.3c0,1.3,0.5,2.6,1.3,3.6"/>
		<path class="st2" d="M17.2,11.2c1.7-2,1.8-4.9,0.2-6.9"/>
		<circle class="st3" cx="12.9" cy="7.5" r="2.3"/>
	</g>
</g>
</svg>
