<?xml version="1.0" encoding="utf-8"?>
<!-- Generator: Adobe Illustrator 23.0.3, SVG Export Plug-In . SVG Version: 6.00 Build 0)  -->
<svg version="1.1" id="Layer_1" xmlns="http://www.w3.org/2000/svg" xmlns:xlink="http://www.w3.org/1999/xlink" x="0px" y="0px"
	 viewBox="0 0 16.8 13.7" style="enable-background:new 0 0 16.8 13.7;" xml:space="preserve">
<style type="text/css">
	.st0{fill:#FFFFFF;}
	.st1{fill:#ED3424;}
</style>
<rect x="0" y="0" class="st0" width="16.8" height="13.9"/>
<title>icon_cameras</title>
<g>
	<g id="Layer_1-2">
		<path d="M8.2,13.7h4.9c0.2,0,0.4-0.2,0.4-0.4c0,0,0,0,0,0v-1.2l2.7,1.4c0.1,0,0.1,0.1,0.2,0.1c0.1,0,0.1,0,0.2-0.1
			c0.1-0.1,0.2-0.2,0.2-0.4V7.2c0-0.1-0.1-0.3-0.2-0.4c-0.1-0.1-0.3-0.1-0.4,0l-2.7,1.5V7.1c0-0.2-0.2-0.4-0.4-0.4c0,0,0,0,0,0h-0.7
			C14,5.3,14.2,3,12.9,1.4S9.3-0.5,7.7,0.8C7,1.4,6.6,2.1,6.4,2.9c-0.5-0.6-1.3-1-2.2-1c-1.6,0-2.8,1.2-2.8,2.8c0,0.8,0.3,1.5,0.8,2
			H1.9c-0.2,0-0.4,0.2-0.4,0.4c0,0,0,0,0,0v1.9h-1C0.2,8.9,0,9.1,0,9.3c0,0,0,0,0,0.1V11c0,0.2,0.2,0.4,0.4,0.4c0,0,0,0,0,0h1.1v1.9
			c0,0.2,0.2,0.4,0.4,0.4c0,0,0,0,0,0h4.9 M1.5,10.6H0.8V9.8h0.6V10.6z M10.1,0.8c1.6,0,2.9,1.3,2.9,2.9c0,1.6-1.3,2.9-2.9,2.9
			c-1.6,0-2.9-1.3-2.9-2.9c0,0,0,0,0,0C7.2,2.1,8.5,0.8,10.1,0.8C10.1,0.8,10.1,0.8,10.1,0.8z M6.9,5.7C7.1,6,7.4,6.4,7.7,6.6H6.3
			C6.5,6.4,6.7,6,6.9,5.7z M4.3,2.7c1.1,0,2,0.9,2,2s-0.9,2-2,2s-2-0.9-2-2C2.3,3.6,3.1,2.7,4.3,2.7C4.3,2.7,4.3,2.7,4.3,2.7
			L4.3,2.7z M12.7,9v3.9H2.3V7.5h10.4V9z M16,12.4l-2.5-1.3V9.2L16,7.9V12.4z"/>
		<path class="st1" d="M4.3,3.4C3.6,3.4,3,3.9,3,4.7c0,0.7,0.6,1.3,1.3,1.3c0.7,0,1.3-0.6,1.3-1.3c0,0,0,0,0,0C5.5,4,5,3.4,4.3,3.4z
			 M4.3,5.2C4,5.2,3.7,4.9,3.7,4.7c0-0.3,0.2-0.5,0.5-0.5c0.3,0,0.5,0.2,0.5,0.5c0,0,0,0,0,0C4.8,4.9,4.6,5.2,4.3,5.2z"/>
		<path class="st1" d="M10.1,1.9c-1,0-1.8,0.8-1.8,1.8c0,1,0.8,1.8,1.8,1.8c1,0,1.8-0.8,1.8-1.8c0,0,0,0,0,0
			C11.9,2.7,11.1,1.9,10.1,1.9z M10.1,4.7c-0.6,0-1-0.4-1-1s0.4-1,1-1s1,0.4,1,1S10.6,4.7,10.1,4.7z"/>
		<path d="M8.7,8.7H4.2C4,8.7,3.8,8.9,3.8,9.1c0,0,0,0,0,0v2.2c0,0.2,0.2,0.4,0.4,0.4c0,0,0,0,0,0h4.5c0.2,0,0.4-0.2,0.4-0.4V9.1
			C9.1,8.9,8.9,8.7,8.7,8.7z M8.3,10.9H4.6V9.5h3.7V10.9z"/>
		<circle cx="10.9" cy="9.5" r="0.4"/>
		<circle cx="10.9" cy="10.9" r="0.4"/>
	</g>
</g>
</svg>
