<?xml version="1.0" encoding="utf-8"?>
<!-- Generator: Adobe Illustrator 23.0.3, SVG Export Plug-In . SVG Version: 6.00 Build 0)  -->
<svg version="1.1" id="Layer_1" xmlns="http://www.w3.org/2000/svg" xmlns:xlink="http://www.w3.org/1999/xlink" x="0px" y="0px"
	 viewBox="0 0 17.8 25.2" style="enable-background:new 0 0 17.8 25.2;" xml:space="preserve">
<style type="text/css">
	.st0{fill:#FFFFFF;}
	.st1{fill:#FF0000;}
</style>
<rect x="0" y="0" class="st0" width="17.9" height="25.2"/>
<title>icon_gui</title>
<g>
	<g id="Layer_1-2">
		<path d="M17.8,24.6c-0.2,0.4-0.6,0.7-1.1,0.6c-5.2,0-10.5,0-15.7,0c-0.6,0-1-0.4-1-1V21c0-0.5,0.4-0.9,0.9-0.9c0,0,0,0,0,0h15.8
			c0.5-0.1,0.9,0.2,1.1,0.7V24.6z"/>
		<path d="M13.5,4.8c0,2.7-2.2,4.8-4.8,4.8S3.8,7.5,3.8,4.8S6,0,8.7,0c0,0,0,0,0.1,0C11.4,0,13.5,2.2,13.5,4.8 M5.5,4.8
			c0,0.7,0.2,1.3,0.5,1.9c0.6,0.9,1.5,1,2,0c0.2-0.5,0.4-1,0.5-1.5c0.1-0.9-0.1-1.8-0.6-2.5C7.7,2.3,7.1,2.1,6.6,2.3
			C6.4,2.4,6.2,2.6,6.1,2.8C6,2.9,6,3,5.9,3.1C5.7,3.6,5.5,4.2,5.5,4.8"/>
		<path d="M9.8,19.6h-3v-9.1c0.5,0.1,1,0.1,1.5,0.2c0.5,0,1-0.1,1.5-0.2V19.6z"/>
		<path class="st1" d="M16.8,19.6h-5.2c0-0.3,0-0.6,0-0.8c0-0.3,0.3-0.5,0.5-0.4c0,0,0.1,0,0.1,0c1.3,0.3,2.7,0.3,4,0
			c0.2-0.1,0.5,0.1,0.6,0.3c0,0,0,0.1,0,0.1C16.9,19.1,16.9,19.3,16.8,19.6"/>
	</g>
</g>
</svg>
