<svg id="Layer_1" data-name="Layer 1" xmlns="http://www.w3.org/2000/svg" viewBox="0 0 81.69 90.18"><defs><style>.cls-1,.cls-4{fill:#fff;}.cls-1,.cls-3,.cls-5,.cls-7{fill-rule:evenodd;}.cls-2,.cls-6{stroke:#231f20;stroke-linecap:round;stroke-linejoin:round;stroke-width:0.23px;}.cls-3{fill:#f8f8f8;}.cls-6{fill:none;}.cls-7{fill:red;}</style></defs><title>icon_i2c</title><path class="cls-1" d="M81.42,43.18V84.64a5.26,5.26,0,0,1-5.24,5.26v0H5.24A5.27,5.27,0,0,1,0,84.68v0H0V5.27A5.26,5.26,0,0,1,5.24,0V0H76.18a5.28,5.28,0,0,1,5.27,5.25h0V35.46" transform="translate(0.13 0.11)"/><path class="cls-2" d="M81.42,43.18V84.64a5.26,5.26,0,0,1-5.24,5.26v0H5.24A5.27,5.27,0,0,1,0,84.68v0H0V5.27A5.26,5.26,0,0,1,5.24,0V0H76.18a5.28,5.28,0,0,1,5.27,5.25h0V35.46" transform="translate(0.13 0.11)"/><path class="cls-3" d="M78.59,43.18h-14v7a3.17,3.17,0,0,1-3.12,3.16v0a3.16,3.16,0,0,1-3.16-3.12h0V28.44a3.17,3.17,0,0,1,3.17-3.17h0v0a3.17,3.17,0,0,1,3.17,3.16v0h0v7h14v-30A2.65,2.65,0,0,0,76,2.84v0H5.46A2.63,2.63,0,0,0,2.82,5.48H2.76v79a2.68,2.68,0,0,0,.77,1.87,2.71,2.71,0,0,0,1.93.77H76a2.65,2.65,0,0,0,2.63-2.63h0" transform="translate(0.13 0.11)"/><path class="cls-4" d="M78.59,43.18h-14v7a3.17,3.17,0,0,1-3.12,3.16v0a3.16,3.16,0,0,1-3.16-3.12h0V28.44a3.17,3.17,0,0,1,3.17-3.17h0v0a3.17,3.17,0,0,1,3.17,3.16v0h0v7h14v-30A2.65,2.65,0,0,0,76,2.84v0H5.46A2.63,2.63,0,0,0,2.82,5.48H2.76v79a2.68,2.68,0,0,0,.77,1.87,2.71,2.71,0,0,0,1.93.77H76a2.65,2.65,0,0,0,2.63-2.63h0V43.18Zm2.84-7.72H64.56v-7a3.17,3.17,0,0,0-3.12-3.17v0a3.16,3.16,0,0,0-3.16,3.17v0h0V50.2a3.17,3.17,0,0,0,3.17,3.16h0v0a3.17,3.17,0,0,0,3.17-3.11h0v-7H81.43" transform="translate(0.13 0.11)"/><path class="cls-5" d="M76.18,63.16a5.26,5.26,0,0,0,5.27-5.24h0V43.18H64.56v7a3.17,3.17,0,0,1-3.12,3.16v0a3.16,3.16,0,0,1-3.16-3.12h0V28.44a3.17,3.17,0,0,1,3.17-3.17h0v0a3.17,3.17,0,0,1,3.17,3.16v0h0v7H81.42V20.71a5.26,5.26,0,0,0-5.24-5.26v0H46.7A5.23,5.23,0,0,0,43,16.94a5.29,5.29,0,0,0-1.55,3.77h0V57.92a5.26,5.26,0,0,0,5.26,5.26h.05v0" transform="translate(0.13 0.11)"/><path class="cls-2" d="M76.18,63.16a5.26,5.26,0,0,0,5.27-5.24h0V43.18H64.56v7a3.17,3.17,0,0,1-3.12,3.16v0a3.16,3.16,0,0,1-3.16-3.12h0V28.44a3.17,3.17,0,0,1,3.17-3.17h0v0a3.17,3.17,0,0,1,3.17,3.16v0h0v7H81.42V20.71a5.26,5.26,0,0,0-5.24-5.26v0H46.7A5.23,5.23,0,0,0,43,16.94a5.29,5.29,0,0,0-1.55,3.77h0V57.92a5.26,5.26,0,0,0,5.26,5.26h.05v0Z" transform="translate(0.13 0.11)"/><path class="cls-3" d="M76,60.33a2.63,2.63,0,0,0,2.63-2.62h0V45.94H67.39v7.58a2.64,2.64,0,0,1-2.62,2.64H58.11a2.63,2.63,0,0,1-2.63-2.62h0V25.11a2.62,2.62,0,0,1,2.62-2.63h6.66a2.62,2.62,0,0,1,2.63,2.62h0v7.51H78.73V21A2.73,2.73,0,0,0,76,18.27h0v0H46.84a2.65,2.65,0,0,0-2.63,2.63h0V57.71a2.63,2.63,0,0,0,2.62,2.63" transform="translate(0.13 0.11)"/><path class="cls-6" d="M76,60.33a2.63,2.63,0,0,0,2.63-2.62h0V45.94H67.39v7.58a2.64,2.64,0,0,1-2.62,2.64H58.11a2.63,2.63,0,0,1-2.63-2.62h0V25.11a2.62,2.62,0,0,1,2.62-2.63h6.66a2.62,2.62,0,0,1,2.63,2.62h0v7.51H78.73V21A2.73,2.73,0,0,0,76,18.27h0v0H46.84a2.65,2.65,0,0,0-2.63,2.63h0V57.71a2.63,2.63,0,0,0,2.62,2.63m0,0H76" transform="translate(0.13 0.11)"/><path class="cls-5" d="M0,63.23H16.87V15.47H0Z" transform="translate(0.13 0.11)"/><path class="cls-6" d="M0,63.23H16.87V15.47H0Z" transform="translate(0.13 0.11)"/><path class="cls-3" d="M2.76,60.4H14V18.3H2.76Z" transform="translate(0.13 0.11)"/><path class="cls-6" d="M2.76,60.4H14V18.3H2.76Zm61.8-24.94H81.43M64.56,43.18H81.43" transform="translate(0.13 0.11)"/><path class="cls-7" d="M20,15.4a5.33,5.33,0,0,1,5.38-5.33H33a5.33,5.33,0,0,1,3.77,1.57,5.27,5.27,0,0,1,1.56,3.75h0v.85A5.33,5.33,0,0,1,33,21.58v.06H25.44a1.2,1.2,0,0,0-1.2,1.13h14V27H20V22.77a5.33,5.33,0,0,1,5.38-5.33h7.16a1.52,1.52,0,0,0,1.52-1.52v0h0a1.53,1.53,0,0,0-1.53-1.53h0v0H25.37a1.09,1.09,0,0,0-1.12,1h0" transform="translate(0.13 0.11)"/><path class="cls-6" d="M20,15.4a5.33,5.33,0,0,1,5.38-5.33H33a5.33,5.33,0,0,1,3.77,1.57,5.27,5.27,0,0,1,1.56,3.75h0v.85A5.33,5.33,0,0,1,33,21.58v.06H25.44a1.2,1.2,0,0,0-1.2,1.13h14V27H20V22.77a5.33,5.33,0,0,1,5.38-5.33h7.16a1.52,1.52,0,0,0,1.52-1.52v0h0a1.53,1.53,0,0,0-1.53-1.53h0v0H25.37a1.09,1.09,0,0,0-1.12,1H20Z" transform="translate(0.13 0.11)"/></svg>