<?xml version="1.0" encoding="utf-8"?>
<!-- Generator: Adobe Illustrator 23.0.3, SVG Export Plug-In . SVG Version: 6.00 Build 0)  -->
<svg version="1.1" id="Capa_1" xmlns="http://www.w3.org/2000/svg" xmlns:xlink="http://www.w3.org/1999/xlink" x="0px" y="0px"
	 viewBox="0 0 512 512" style="enable-background:new 0 0 512 512;" xml:space="preserve">
<style type="text/css">
	.st0{fill:#FFFFFF;}
	.st1{fill:#FF0000;}
</style>
<rect class="st0" width="510.9" height="510.9"/>
<title>icon_gpio</title>
<path d="M418.9,93.1h69.8c12.9-0.3,23.1-10.9,22.8-23.8c-0.3-12.5-10.3-22.5-22.8-22.8h-69.8V93.1z"/>
<path d="M232.7,46.5H116.4C52.1,46.6,0,98.7,0,162.9c0,64.2,52.1,116.3,116.3,116.3h279.3c38.6,0,69.8,31.3,69.8,69.9
	c0,38.5-31.3,69.8-69.8,69.8H279.3v-23.3c0-12.9-10.4-23.3-23.3-23.3c0,0,0,0,0,0H116.4c-12.9,0-23.3,10.4-23.3,23.3c0,0,0,0,0,0
	v23.3H23.3c-12.9,0.3-23.1,10.9-22.8,23.8c0.3,12.5,10.3,22.5,22.8,22.8h69.8v23.3c0,12.9,10.4,23.3,23.3,23.3c0,0,0,0,0,0H256
	c12.9,0,23.3-10.4,23.3-23.3v-23.3h116.4c64.3-0.6,115.9-53.2,115.3-117.4c-0.6-63.4-51.9-114.7-115.3-115.3H116.4
	c-38.6,0-69.8-31.3-69.8-69.8c0-38.6,31.3-69.8,69.8-69.8h116.4"/>
<path class="st1" d="M418.9,46.5V23.3c0-12.9-10.4-23.3-23.3-23.3H256c-12.9,0-23.3,10.4-23.3,23.3c0,0,0,0,0,0v93.1
	c0,12.9,10.4,23.3,23.3,23.3c0,0,0,0,0,0h139.6c12.9,0,23.3-10.4,23.3-23.3c0,0,0,0,0,0V46.5z"/>
</svg>
