<svg id="Layer_1" data-name="Layer 1" xmlns="http://www.w3.org/2000/svg" viewBox="0 0 503.13 234.5"><defs><style>.cls-1{fill:red;}.cls-2{font-size:11px;font-family:FedraMono-Light, Fedra Mono Light;font-weight:300;}.cls-3{fill:#fff;}.cls-10,.cls-11,.cls-4,.cls-5,.cls-6,.cls-7,.cls-8{fill:none;stroke-miterlimit:10;}.cls-4,.cls-5,.cls-8{stroke:red;stroke-width:2px;}.cls-5{stroke-dasharray:12 3;}.cls-10,.cls-11,.cls-6{stroke:#000;}.cls-7{stroke:#f5f5f5;}.cls-8{stroke-dasharray:3.33 3.33;}.cls-9{fill:#ff3030;}.cls-10,.cls-11{stroke-linecap:round;}.cls-10{stroke-width:2.4px;}.cls-11{stroke-width:1.2px;}</style></defs><title>whole_system_black</title><path d="M148.53,147c.13.22.37.44.38.66,0,1.28,0,2.56,0,3.84a.22.22,0,0,0,.21.22h2.3a.63.63,0,0,1,.63.63c0,.75,0,1.5,0,2.25a.28.28,0,0,0,.26.26h3.82c.36,0,.63.14.63.52s-.26.53-.63.53c-1.28,0-2.56,0-3.84,0a.23.23,0,0,0-.24.23c0,.9,0,1.8,0,2.69a.21.21,0,0,0,.2.21h3.84c.37,0,.66.11.67.52s-.29.54-.67.54c-1.26,0-2.53,0-3.79,0a.25.25,0,0,0-.25.25c0,.85,0,1.71,0,2.57,0,.25.05.33.32.32h3.74c.36,0,.66.09.67.5s-.28.55-.66.55c-1.28,0-2.56,0-3.84,0a.2.2,0,0,0-.21.2c0,.75,0,1.5,0,2.25a.67.67,0,0,1-.69.69c-.74,0-1.48,0-2.21,0a.24.24,0,0,0-.24.24c0,1.28,0,2.55,0,3.82,0,.37-.13.65-.54.65s-.52-.29-.51-.66c0-1.28,0-2.56,0-3.84a.21.21,0,0,0-.21-.21c-.9,0-1.79,0-2.68,0a.24.24,0,0,0-.24.24c0,1.26,0,2.53,0,3.79,0,.37-.11.68-.53.68s-.54-.31-.53-.68c0-1.26,0-2.53,0-3.79a.24.24,0,0,0-.24-.24c-.9,0-1.79,0-2.69,0a.21.21,0,0,0-.21.2c0,1.31,0,2.61,0,3.92,0,.2-.32.4-.49.59-.18-.19-.5-.38-.51-.58,0-1.3,0-2.61,0-3.91a.22.22,0,0,0-.22-.22c-.75,0-1.5,0-2.26,0a.65.65,0,0,1-.66-.66c0-.75,0-1.5,0-2.26a.24.24,0,0,0-.24-.22c-1.26,0-2.52,0-3.79,0-.38,0-.67-.11-.68-.52s.31-.54.69-.54H136c.27,0,.32-.07.31-.32,0-.86,0-1.72,0-2.57a.25.25,0,0,0-.25-.25c-1.27,0-2.54,0-3.81,0-.38,0-.64-.15-.64-.54s.28-.52.64-.52h3.84a.24.24,0,0,0,.23-.23q0-1.34,0-2.67a.24.24,0,0,0-.24-.23c-1.29,0-2.58,0-3.87,0-.36,0-.65-.17-.58-.52a.81.81,0,0,1,.58-.51c1.29-.05,2.58,0,3.87,0a.25.25,0,0,0,.24-.24c0-.76,0-1.53,0-2.3a.6.6,0,0,1,.6-.6c.77,0,1.54,0,2.3,0a.24.24,0,0,0,.24-.23c0-1.27,0-2.53,0-3.79,0-.24.24-.46.37-.69h.3c.12.24.33.47.34.72,0,1.25,0,2.5,0,3.76a.26.26,0,0,0,.24.24c.89,0,1.78,0,2.67,0a.24.24,0,0,0,.23-.22c0-1.27,0-2.53,0-3.79,0-.24.24-.47.37-.7h.3c.12.23.36.46.36.7,0,1.26,0,2.52,0,3.79a.22.22,0,0,0,.23.22c.89,0,1.79,0,2.68,0a.23.23,0,0,0,.22-.22c0-1.26,0-2.53,0-3.79,0-.24.23-.47.35-.71Zm-4.33,6h-6.58c-.08,0-.25.16-.25.24q0,6.57,0,13.15a.39.39,0,0,0,.27.26q6.56,0,13.12,0a.37.37,0,0,0,.26-.27c0-4.38,0-8.76,0-13.14a.36.36,0,0,0-.25-.24H144.2" transform="translate(-5.87 0.46)"/><path class="cls-1" d="M144.2,164.46h-4.09a.65.65,0,0,1-.64-.65v-8.19a.62.62,0,0,1,.62-.62h8.22a.62.62,0,0,1,.62.62v8.19a.65.65,0,0,1-.66.65c-1.35,0-2.71,0-4.07,0m-4-4.46h.31c0,1.15,0,2.3,0,3.44a.27.27,0,0,0,.26.26q3.42,0,6.84,0a.25.25,0,0,0,.25-.25q0-3.44,0-6.85a.25.25,0,0,0-.25-.25h-6.86a.23.23,0,0,0-.23.24c0,1.13,0,2.27,0,3.41" transform="translate(-5.87 0.46)"/><text class="cls-2" transform="translate(98.18 189.5)">Hardware</text><text class="cls-2" transform="translate(181.18 189.5)">Stimuli</text><path d="M199,159.64v8.05a.69.69,0,0,1-.36.71.59.59,0,0,1-.74-.16l-3-3.32c-.52-.53-1-1.1-1.53-1.64a.58.58,0,0,0-.35-.15c-.7,0-1.41,0-2.1-.07a2.79,2.79,0,0,1-2.39-2.58,9.39,9.39,0,0,1,.09-2.25,2.52,2.52,0,0,1,2.15-2c.75-.09,1.51,0,2.26-.08a.53.53,0,0,0,.37-.18c1.5-1.61,3-3.23,4.46-4.85a.7.7,0,0,1,.7-.28.65.65,0,0,1,.47.72v8.13Z" transform="translate(-5.87 0.46)"/><path d="M214,159.73A12.57,12.57,0,0,1,203.57,172a10.52,10.52,0,0,1-1.11.14.93.93,0,0,1-1-.86c0-.71.27-1.17.9-1.23a10,10,0,0,0,5.62-2.26,10.16,10.16,0,0,0,3.88-9.33,10.44,10.44,0,0,0-8.85-9.26c-.21,0-.43-.05-.65-.07a1,1,0,0,1-.9-1.24.91.91,0,0,1,1.06-.85,12.42,12.42,0,0,1,10.81,8.39,12,12,0,0,1,.71,4.28" transform="translate(-5.87 0.46)"/><path d="M210.6,159.43a9.23,9.23,0,0,1-7.84,9.27,2,2,0,0,1-.64,0c-.5-.11-.73-.53-.7-1.15a.93.93,0,0,1,.84-.9,6.93,6.93,0,0,0,5.88-4.87,7.09,7.09,0,0,0-5.85-9.25.86.86,0,0,1-.8-.61,1.13,1.13,0,0,1,.18-1.18,1,1,0,0,1,.87-.29,9.2,9.2,0,0,1,8,7.95c0,.4.06.8.08,1" transform="translate(-5.87 0.46)"/><path class="cls-1" d="M207.2,159.54a5.82,5.82,0,0,1-4.54,5.74.94.94,0,0,1-1.21-.68,1,1,0,0,1,.74-1.37,3.62,3.62,0,0,0,2.85-3,3.68,3.68,0,0,0-2.79-4.25,1.11,1.11,0,0,1-.71-1.64,1,1,0,0,1,1-.44,5.81,5.81,0,0,1,4.59,5.17c0,.17,0,.34,0,.45" transform="translate(-5.87 0.46)"/><text class="cls-2" transform="translate(270.18 151.05)">Tasks</text><path d="M299,120.27v17a1.79,1.79,0,0,1-1.82,1.77H278.82a1.79,1.79,0,0,1-1.82-1.77V115.77a1.79,1.79,0,0,1,1.82-1.77h13.74Z" transform="translate(-5.87 0.46)"/><polygon class="cls-3" points="291.13 121.99 285.74 116.47 273.13 116.47 273.13 138.47 291.13 138.47 291.13 121.99"/><rect x="275.13" y="120.46" width="7" height="2"/><rect class="cls-1" x="275.13" y="125.46" width="13" height="2"/><rect x="275.13" y="129.46" width="13" height="2"/><rect x="275.13" y="132.46" width="13" height="2"/><text class="cls-2" transform="translate(218.49 9.39)">Data</text><path d="M250,21V36.45a1.33,1.33,0,0,1-.46,1.09,1.46,1.46,0,0,1-1.09.46H226.54a1.36,1.36,0,0,1-1.09-.46,1.49,1.49,0,0,1-.45-1.09V14.55a1.36,1.36,0,0,1,.45-1.09,1.67,1.67,0,0,1,1.09-.46h15.1a3.64,3.64,0,0,1,1.45.32,4.65,4.65,0,0,1,1.23.77l4.54,4.56a4.12,4.12,0,0,1,.78,1.23,3.24,3.24,0,0,1,.36,1.45" transform="translate(-5.87 0.46)"/><rect class="cls-1" x="222.13" y="28.46" width="17" height="8"/><rect class="cls-3" x="224.13" y="30.46" width="13" height="6"/><path class="cls-3" d="M239,21V15.48a.45.45,0,0,0-.48-.48h-3a.45.45,0,0,0-.48.48v5a.45.45,0,0,0,.48.48h3a.45.45,0,0,0,.48-.48" transform="translate(-5.87 0.46)"/><path class="cls-3" d="M229,15h-3V36.57l2-.46V29.49a1.25,1.25,0,0,1,.47-1,1.52,1.52,0,0,1,1.11-.44h13.84a1.41,1.41,0,0,1,1.12.44,1.38,1.38,0,0,1,.46,1V36h3V21.29a1.63,1.63,0,0,0-.17-.64,1.47,1.47,0,0,0-.31-.55l-4.38-4.58a1.34,1.34,0,0,0-.53-.32A2.1,2.1,0,0,0,242,15v7.42a1.33,1.33,0,0,1-.47,1.1,1.75,1.75,0,0,1-1.14.46h-9.78a1.44,1.44,0,0,1-1.14-.46,1.47,1.47,0,0,1-.47-1.1V15" transform="translate(-5.87 0.46)"/><text class="cls-2" transform="translate(381.18 193.61)">Data<tspan x="0" y="13.2">Visualization</tspan></text><polygon points="407.13 178.47 407.13 180.47 381.13 180.47 381.13 156.47 383.13 156.47 383.13 178.47 407.13 178.47"/><rect class="cls-1" x="386.13" y="168.46" width="3" height="8"/><rect x="392.13" y="160.46" width="3" height="16"/><rect x="399.13" y="165.46" width="3" height="11"/><path d="M370,179a1,1,0,0,1-1.12.62c-5.25,0-10.49,0-15.74,0a1,1,0,0,1-1-1v-3.17a.94.94,0,0,1,.94-.94h15.81a1,1,0,0,1,1.09.66Z" transform="translate(-5.87 0.46)"/><path d="M365.67,159.24a4.84,4.84,0,1,1-4.78-4.84,4.81,4.81,0,0,1,4.78,4.84m-8,0a3.92,3.92,0,0,0,.48,1.93c.56.93,1.48,1,2,0a4.55,4.55,0,0,0,.46-1.48,3.48,3.48,0,0,0-.55-2.51,1,1,0,0,0-1.8,0,2.82,2.82,0,0,0-.18.29,3.93,3.93,0,0,0-.4,1.78" transform="translate(-5.87 0.46)"/><path d="M362,174h-3v-9.1a11.54,11.54,0,0,0,1.52.16,11.11,11.11,0,0,0,1.48-.19Z" transform="translate(-5.87 0.46)"/><path class="cls-1" d="M369,174h-5.17c0-.29,0-.56,0-.83a.48.48,0,0,1,.59-.43,10.2,10.2,0,0,0,4,0,.47.47,0,0,1,.57.44,7.35,7.35,0,0,1,0,.82" transform="translate(-5.87 0.46)"/><path d="M140.94,61V59.69q0-9.64,0-19.29c0-3,1.42-4.39,4.4-4.39H204c3.12,0,4.49,1.38,4.49,4.52V54.61a1.68,1.68,0,0,0,.28.14c3,.24,3.47.73,3.47,3.73,0,3.93,0,7.86,0,11.79,0,2.41-.75,3.18-3.18,3.26-.13,0-.27,0-.57,0v28c0,3.11-1.4,4.51-4.5,4.52H192.22c0,.47,0,.88,0,1.29A3.72,3.72,0,0,1,188.4,111c-2.36,0-4.72,0-7.08,0a3.73,3.73,0,0,1-4.1-4c0-.27,0-.55-.07-.89h-2.33c-.52,3.48-.74,3.67-4.3,3.67H160.44c-2.42,0-3.16-.73-3.26-3.19,0-.14,0-.27-.08-.54h-12c-2.68,0-4.18-1.5-4.18-4.19q0-9.7,0-19.4V81c-.49,0-.9,0-1.31,0a2.42,2.42,0,0,1-2.42-2.39q0-7.6,0-15.22A2.38,2.38,0,0,1,139.63,61C140,61,140.4,61,140.94,61Zm12.54,18.73h2.22c.82,0,1.43.31,1.46,1.2s-.59,1.31-1.46,1.31-1.47,0-2.18,0v2.5h2c.87,0,1.6.18,1.67,1.22.05.84-.55,1.28-1.71,1.28h-7.4c-1.88,0-2.11-.22-2.11-2.08V81.08H143.5c0,.22-.06.39-.06.56q0,10.17,0,20.36c0,1.09.47,1.52,1.6,1.53,3.79,0,7.57,0,11.36,0a6.67,6.67,0,0,0,.78-.1c0-2.8,0-5.54,0-8.29A2.53,2.53,0,0,1,160,92.29c4,0,7.93,0,11.89,0a2.5,2.5,0,0,1,2.79,2.78c0,2.43,0,4.86,0,7.29v1.12h2.52v-1.2c0-5.29,0-10.58,0-15.86,0-2,.9-2.87,2.89-2.88,3,0,6,0,9,0,2.24,0,3.11.87,3.11,3.11,0,5.22,0,10.43,0,15.65,0,.38,0,.76.05,1.23H204c1.61,0,1.95-.33,1.95-1.93V73.52c-3.71,0-7.24,0-10.78,0-2.05,0-3-.9-3-2.92q0-6.42,0-12.86c0-2.1.88-3,3-3h9.54c.37,0,.75,0,1.19-.08V40.54c0-1.71-.29-2-2-2H145.38c-1.63,0-1.94.31-1.94,1.93q0,9.69,0,19.39c0,.38,0,.75.05,1.12H146c0-1.59,0-3.11,0-4.64,0-1.11.38-1.54,1.44-1.55,2.79,0,5.57,0,8.36,0,.83,0,1.41.36,1.4,1.26s-.59,1.23-1.43,1.23h-2.19v2.51h2.11c.88,0,1.51.31,1.51,1.26s-.68,1.24-1.54,1.24h-2.07v2.49h2.13c.87,0,1.49.34,1.48,1.29s-.63,1.22-1.44,1.23h-2.2v2.49c.8,0,1.54,0,2.28,0s1.4.41,1.36,1.3-.57,1.18-1.36,1.18h-2.28v2.52c.76,0,1.47,0,2.18,0s1.43.31,1.46,1.19-.6,1.3-1.47,1.3h-2.21ZM209.64,71V57.35H194.76V71Zm-37.52,36.28V94.84H159.76v12.39Zm17.51-8.74V86.11h-9.84V98.47h3.62c0-.35.05-.63.05-.91,0-1.32,0-2.64,0-4a1.17,1.17,0,0,1,1.26-1.29,1.15,1.15,0,0,1,1.21,1.22c0,.54,0,1.07,0,1.61v3.35Zm-49.87-20h6.1V63.58h-6.1Zm40,22.65c0,2.16-.06,4.23.06,6.28a1.64,1.64,0,0,0,1.16,1.09c2.53.1,5.07.09,7.6,0a1.55,1.55,0,0,0,1.11-1c.1-2.09.05-4.19.05-6.34Zm-31.18-43.8V84.72h2.32V57.29Z" transform="translate(-5.87 0.46)"/><path class="cls-1" d="M174.67,81c-2.39,0-4.78,0-7.18,0a2.51,2.51,0,0,1-2.79-2.78c0-2.71.11-5.41.11-8.12,0-2.05-.11-4.1-.12-6.14s.93-2.94,2.95-2.94h14.15c2,0,2.93.92,2.92,2.85,0,2.73-.11,5.45-.12,8.18,0,2,0,4.09.12,6.13A2.52,2.52,0,0,1,182.07,81C179.6,81,177.14,81,174.67,81Zm7.51-2.5V63.61h-15V78.52Z" transform="translate(-5.87 0.46)"/><path d="M149.75,101A3.7,3.7,0,0,1,146,97.33a3.75,3.75,0,1,1,3.79,3.68Zm1.35-3.43,0-.5c-.45-.34-.86-.88-1.36-1-.71-.17-1.22.35-1.27,1.09s.42,1.38,1.18,1.3C150.17,98.42,150.62,97.89,151.1,97.58Z" transform="translate(-5.87 0.46)"/><path d="M149.64,48.5A3.71,3.71,0,0,1,146,44.7a3.75,3.75,0,1,1,3.68,3.8ZM151.12,45l0-.49c-.48-.31-.92-.82-1.43-.89-.72-.11-1.16.44-1.19,1.19s.64,1.41,1.28,1.21A5.16,5.16,0,0,0,151.12,45Z" transform="translate(-5.87 0.46)"/><path d="M203.45,97.33a3.75,3.75,0,0,1-7.5-.1,3.75,3.75,0,1,1,7.5.1Zm-2.33.18V97c-.46-.32-.89-.84-1.4-.93-.71-.12-1.2.41-1.22,1.16s.49,1.35,1.25,1.23C200.24,98.4,200.66,97.85,201.12,97.51Z" transform="translate(-5.87 0.46)"/><path d="M203.45,44.75a3.75,3.75,0,0,1-7.49,0,3.75,3.75,0,1,1,7.49,0Zm-2.32.2,0-.49c-.48-.32-.93-.82-1.43-.89a1.05,1.05,0,0,0-1.19,1.19c0,.81.54,1.34,1.29,1.2C200.27,45.87,200.68,45.3,201.13,45Z" transform="translate(-5.87 0.46)"/><path d="M167.48,40.85c.32.47.84.91.92,1.42.11.7-.4,1.19-1.17,1.23s-1.43-.63-1.24-1.28a5,5,0,0,1,1-1.38Z" transform="translate(-5.87 0.46)"/><path d="M182,43.69c-.34-.46-.87-.88-1-1.39-.14-.71.39-1.19,1.14-1.26s1.45.57,1.28,1.22a5.27,5.27,0,0,1-.95,1.42Z" transform="translate(-5.87 0.46)"/><path d="M163.61,42.56c-.48.31-.93.84-1.43.9-.78.09-1.25-.49-1.2-1.3a1.06,1.06,0,0,1,1.28-1.1c.5.11.91.65,1.36,1Z" transform="translate(-5.87 0.46)"/><path d="M173.61,42.57c-.48.31-.93.82-1.44.89-.71.1-1.17-.44-1.2-1.2s.64-1.42,1.3-1.21a5.16,5.16,0,0,1,1.36,1Z" transform="translate(-5.87 0.46)"/><path d="M158.62,42.46c-.45.35-.86.88-1.36,1-.71.15-1.2-.35-1.28-1.1s.53-1.47,1.19-1.31a4.93,4.93,0,0,1,1.43.91Z" transform="translate(-5.87 0.46)"/><path d="M177,43.69c-.33-.47-.86-.89-.94-1.4-.14-.79.43-1.26,1.23-1.25s1.27.51,1.14,1.23c-.1.51-.6.95-.93,1.41Z" transform="translate(-5.87 0.46)"/><path d="M187.49,40.85c.32.47.84.91.91,1.42.1.77-.46,1.26-1.27,1.22A1.05,1.05,0,0,1,186,42.22c.1-.5.62-.92.95-1.38Z" transform="translate(-5.87 0.46)"/><path d="M193.63,42.47c-.46.35-.87.88-1.37,1-.72.16-1.22-.36-1.27-1.11a1.08,1.08,0,0,1,1.2-1.29c.51.06.95.59,1.43.91Z" transform="translate(-5.87 0.46)"/><path d="M158.61,47.52c-.46.32-.89.84-1.4.93-.78.12-1.26-.43-1.23-1.24s.51-1.27,1.23-1.13c.51.1.94.6,1.41.93Z" transform="translate(-5.87 0.46)"/><path d="M162.45,45.86c.33.45.85.87.94,1.37.13.77-.42,1.27-1.23,1.25S160.88,48,161,47.26c.09-.51.6-.93.92-1.4Z" transform="translate(-5.87 0.46)"/><path d="M172.49,45.86c.32.47.82.91.9,1.42.12.72-.42,1.2-1.17,1.2S170.87,48,171,47.21c.1-.5.63-.91,1-1.37Z" transform="translate(-5.87 0.46)"/><path d="M176.92,48.67c-.32-.47-.83-.91-.91-1.42-.11-.71.41-1.2,1.17-1.21s1.35.49,1.21,1.27c-.09.5-.63.92-1,1.37Z" transform="translate(-5.87 0.46)"/><path d="M188.62,47.52c-.46.32-.89.83-1.4.93-.72.14-1.21-.39-1.23-1.14s.45-1.37,1.23-1.23c.51.08.94.6,1.4.93Z" transform="translate(-5.87 0.46)"/><path d="M192.48,45.85c.32.47.84.9.92,1.4a1.05,1.05,0,0,1-1.15,1.23c-.81,0-1.36-.48-1.23-1.25.08-.5.62-.92.95-1.38Z" transform="translate(-5.87 0.46)"/><path d="M167,48.68c-.35-.44-.9-.85-1-1.35a1,1,0,0,1,1.09-1.27c.82-.06,1.39.41,1.31,1.17-.05.5-.58,1-.89,1.43Z" transform="translate(-5.87 0.46)"/><path d="M182,48.68c-.35-.44-.89-.85-1-1.35-.16-.7.32-1.22,1.09-1.27s1.39.4,1.31,1.17c-.06.5-.58,1-.9,1.43Z" transform="translate(-5.87 0.46)"/><path d="M201.05,66h2.24c.83,0,1.4.39,1.4,1.26s-.6,1.24-1.42,1.25c-1.56,0-3.12,0-4.69,0-.82,0-1.38-.44-1.34-1.31S197.81,66,198.6,66Z" transform="translate(-5.87 0.46)"/><path d="M201,59.78h2.35A1.18,1.18,0,0,1,204.69,61a1.16,1.16,0,0,1-1.28,1.26c-1.63,0-3.26,0-4.9,0A1.16,1.16,0,0,1,197.23,61a1.18,1.18,0,0,1,1.33-1.21Z" transform="translate(-5.87 0.46)"/><path d="M167.22,101c0-.46-.15-1,0-1.36s.72-1,1.09-1a1.64,1.64,0,0,1,1.26.93,8.18,8.18,0,0,1,0,3,1.51,1.51,0,0,1-1.16.93,2.08,2.08,0,0,1-1.2-1.06c-.19-.36,0-.91,0-1.37Z" transform="translate(-5.87 0.46)"/><path d="M164.68,101c0,.42,0,.85,0,1.27a1.17,1.17,0,0,1-1.27,1.27,1.14,1.14,0,0,1-1.18-1.24c0-.82,0-1.63,0-2.45a1.23,1.23,0,1,1,2.45,0C164.7,100.19,164.68,100.58,164.68,101Z" transform="translate(-5.87 0.46)"/><text class="cls-2" transform="translate(135.18 31.41)">Pilot</text><polyline class="cls-4" points="195.23 143.47 195.23 136.47 175.23 136.47 169.23 130.47 169.23 123.47 169.23 117.47"/><polyline class="cls-4" points="138.13 143.47 138.13 136.47 158.13 136.47 164.13 130.47 164.13 123.47 164.13 117.47"/><text class="cls-2" transform="translate(321.18 31.41)">Terminal</text><line class="cls-4" x1="213.13" y1="45.46" x2="305.93" y2="45.46"/><path class="cls-1" d="M305,49.8a.49.49,0,0,1,.16-.69L311.57,45l-6.45-4.11a.49.49,0,0,1-.16-.69.5.5,0,0,1,.69-.15l7.12,4.53a.5.5,0,0,1,0,.84L305.65,50a.42.42,0,0,1-.26.08A.51.51,0,0,1,305,49.8Z" transform="translate(-5.87 0.46)"/><line class="cls-5" x1="214.34" y1="74.46" x2="305.93" y2="74.46"/><path class="cls-1" d="M227,78.8a.49.49,0,0,0-.16-.69L220.43,74l6.45-4.11a.49.49,0,0,0,.16-.69.5.5,0,0,0-.69-.15l-7.12,4.53a.5.5,0,0,0,0,.84L226.35,79a.42.42,0,0,0,.26.08A.51.51,0,0,0,227,78.8Z" transform="translate(-5.87 0.46)"/><path class="cls-1" d="M305,78.8a.49.49,0,0,1,.16-.69L311.57,74l-6.45-4.11a.49.49,0,0,1-.16-.69.5.5,0,0,1,.69-.15l7.12,4.53a.5.5,0,0,1,0,.84L305.65,79a.42.42,0,0,1-.26.08A.51.51,0,0,1,305,78.8Z" transform="translate(-5.87 0.46)"/><line class="cls-4" x1="214.34" y1="103.46" x2="307.13" y2="103.46"/><path class="cls-1" d="M227,107.8a.49.49,0,0,0-.16-.69L220.43,103l6.45-4.11a.49.49,0,0,0,.16-.69.5.5,0,0,0-.69-.15l-7.12,4.53a.5.5,0,0,0,0,.84l7.12,4.53a.42.42,0,0,0,.26.08A.51.51,0,0,0,227,107.8Z" transform="translate(-5.87 0.46)"/><text class="cls-2" transform="translate(227.13 68.05)">Networking</text><line class="cls-6" x1="420.63" y1="127.96" x2="379.63" y2="78.96"/><path d="M509,127.61V234H340.12V127H508.51Zm-9.31,101.08c-.55-1-1.11-2-1.58-2.84l-2.68,1.52c-1.31,2.88,1.77,2.22,2.22,3.73-.25.26-.69.78-.74.73-.64-.59-1.22-1.27-2.07-2.21v-2.56l1.85-1.63-3.26-1v8.25h6.94ZM343.56,231.1c.44-1.52,3.55-.84,2.21-3.73l-2.67-1.52-1.59,2.84-.56,3.92h6.79v-8.33l-3.22,1.15,1.86,1.65v2.52c-.88,1-1.45,1.64-2.08,2.23C344.24,231.88,343.81,231.36,343.56,231.1Zm162.51-10.55c-1.26-.56-.74-4.07-3-2.76l-1.5,2.76c-1.05.37-1.05.37-.78,3.4h6.54v-7.8h-6.54v3.21l.56.25,1.19-2.41h2.23c.8,1,1.38,1.71,1.88,2.47C506.73,219.73,506.29,220.24,506.07,220.55Zm-4.49-66.75,1.53,2.77c2.23,1.32,1.71-2.22,3-2.77.21.32.64.84.58.93-.49.76-1.07,1.44-1.85,2.42h-2.19l-1.36-2.32-.48.38v3h6.53v-7.81h-6.64c0,1.17,0,2.21,0,3.25C500.73,153.73,501.28,153.75,501.58,153.8Zm-160.36-3.39v73.46H500V150.41Zm-.06-2.07H507.33v-9.53H341.16Zm7.37,84.29H492.6v-7.81H348.53ZM507.41,128.39H341.24v9.54H507.41Zm0,86.86V159.19h-6.58v56.06ZM341.72,149.2l-.1.29H506.86v-.29Zm165.64,83.49v-7.78h-6.58v7.78Z" transform="translate(-5.87 0.46)"/><path d="M435,133.51h69.9v.29h-70Z" transform="translate(-5.87 0.46)"/><path d="M504.89,135h-70v-.29H505Z" transform="translate(-5.87 0.46)"/><path d="M435,135.84h69.9v.29h-70Z" transform="translate(-5.87 0.46)"/><path d="M504.88,130.44H435v-.29h70Z" transform="translate(-5.87 0.46)"/><path d="M435,131.18h69.9v.29h-70Z" transform="translate(-5.87 0.46)"/><ellipse cx="464" cy="133" rx="49.53" ry="0.15"/><path d="M353.63,130h58.86v.29h-59Z" transform="translate(-5.87 0.46)"/><ellipse cx="377.14" cy="131.84" rx="41.72" ry="0.15"/><path d="M353.64,134.67H412.5V135h-59Z" transform="translate(-5.87 0.46)"/><ellipse cx="377.26" cy="134.2" rx="41.72" ry="0.15"/><path d="M353.64,135.84H412.5v.29h-59Z" transform="translate(-5.87 0.46)"/><path d="M412.49,132.76H353.63v-.29h59Z" transform="translate(-5.87 0.46)"/><path d="M346.09,130h6v6.14h-6Zm.47,5.49h5v-4.84h-5Z" transform="translate(-5.87 0.46)"/><line x1="333.13" y1="44.46" x2="370.13" y2="127.46"/><line x1="333.63" y1="81.96" x2="370.63" y2="232.96"/><path class="cls-7" d="M472.29,127.5" transform="translate(-5.87 0.46)"/><path class="cls-7" d="M472.5,127.5" transform="translate(-5.87 0.46)"/><text class="cls-2" transform="translate(349.18 194.05)">UI</text><text class="cls-2" transform="translate(53.18 31.41)">Children</text><line class="cls-4" x1="113.13" y1="74.46" x2="114.63" y2="74.46"/><line class="cls-8" x1="117.97" y1="74.46" x2="122.97" y2="74.46"/><line class="cls-4" x1="124.63" y1="74.46" x2="126.13" y2="74.46"/><line class="cls-6" x1="322.63" y1="48.96" x2="334.63" y2="128.96"/><line class="cls-6" x1="334.13" y1="234.46" x2="322.63" y2="78.96"/><line class="cls-6" x1="501.63" y1="127.96" x2="379.63" y2="48.96"/><path d="M374.82,103.89h-.72v-.63a2.45,2.45,0,0,0-2.45-2.45h-2.22a2.4,2.4,0,0,0-1.38.43,2.46,2.46,0,0,0-1.39-.43h-2.22a2.46,2.46,0,0,0-1.39.43,2.4,2.4,0,0,0-1.38-.43h-2.23a2.45,2.45,0,0,0-2.44,2.45v.63h-2.86v-.63a2.45,2.45,0,0,0-2.44-2.45h-2.23a2.43,2.43,0,0,0-1.38.43,2.46,2.46,0,0,0-1.39-.43h-2.22a2.39,2.39,0,0,0-1.35.41,2.44,2.44,0,0,0-1.35-.41H329.51a2.43,2.43,0,0,1-2.76,0h-2.22a2.45,2.45,0,0,0-2.45,2.45v.63h-.72a1.84,1.84,0,0,0-1.84,1.84v3.86a1.83,1.83,0,0,0,1.83,1.83h8.72a1.1,1.1,0,1,0,0-2.2h-8.35V106.1h52.73v3.12H335.06a1.1,1.1,0,0,0,0,2.2h39.76a1.83,1.83,0,0,0,1.83-1.83v-3.86A1.83,1.83,0,0,0,374.82,103.89Zm-47.81,0h-2.74v-.63a.26.26,0,0,1,.26-.25h2.22a.25.25,0,0,1,.26.25Zm15,0H329.26v-.63a.25.25,0,0,1,.25-.25h12.27a.25.25,0,0,1,.25.25v.63Zm4.93,0h-2.74v-.63a.26.26,0,0,1,.26-.25h2.22a.25.25,0,0,1,.26.25v.63Zm5,0h-2.73v-.63a.25.25,0,0,1,.25-.25h2.23a.25.25,0,0,1,.25.25v.63Zm10,0h-2.73v-.63a.25.25,0,0,1,.25-.25h2.23a.25.25,0,0,1,.25.25Zm5,0h-2.74v-.63a.25.25,0,0,1,.26-.25h2.22a.25.25,0,0,1,.26.25v.63Zm5,0h-2.73v-.63a.25.25,0,0,1,.25-.25h2.23a.25.25,0,0,1,.25.25Z" transform="translate(-5.87 0.46)"/><path d="M389.46,100.29H383a5,5,0,0,0-5,5v4.28a1.83,1.83,0,0,0,1.83,1.83h12.82a1.83,1.83,0,0,0,1.83-1.83v-4.28A5,5,0,0,0,389.46,100.29Zm2.82,8.93H380.19v-3.91a2.82,2.82,0,0,1,2.82-2.82h6.45a2.82,2.82,0,0,1,2.82,2.82v3.91Z" transform="translate(-5.87 0.46)"/><path d="M330.51,88h17.1v2.77h-2.48a3.46,3.46,0,0,0-3.46,3.46V96.1a1.69,1.69,0,0,0,1.69,1.69h16.09a1.1,1.1,0,1,0,0-2.2H343.87V94.18a1.27,1.27,0,0,1,1.26-1.27h23.65A1.27,1.27,0,0,1,370,94.18v1.41h-5.45a1.1,1.1,0,1,0,0,2.2h6a1.69,1.69,0,0,0,1.69-1.69V94.18a3.46,3.46,0,0,0-3.46-3.46H366.3V88h17.11a4.13,4.13,0,0,0,4.12-4.13l.07-43.31a4.13,4.13,0,0,0-4.12-4.12h-53a4.13,4.13,0,0,0-4.13,4.12V83.82A4.14,4.14,0,0,0,330.51,88Zm33.59,2.77H349.81V88H364.1ZM328.64,40.51a1.93,1.93,0,0,1,1.93-1.93h52.84a1.93,1.93,0,0,1,1.92,1.93v6.2H328.64Zm-.06,8.4h56.76V78.45H328.58Zm0,31.74h56.76v3.17a1.93,1.93,0,0,1-1.93,1.92h-52.9a1.93,1.93,0,0,1-1.93-1.92Z" transform="translate(-5.87 0.46)"/><path class="cls-9" d="M333.15,39.8A2.82,2.82,0,1,0,336,42.62,2.82,2.82,0,0,0,333.15,39.8Zm0,4.07a1.25,1.25,0,1,1,1.25-1.25A1.25,1.25,0,0,1,333.15,43.87Z" transform="translate(-5.87 0.46)"/><path d="M339.8,39.8a2.82,2.82,0,1,0,2.82,2.82A2.82,2.82,0,0,0,339.8,39.8Zm0,4.07a1.25,1.25,0,1,1,1.25-1.25A1.25,1.25,0,0,1,339.8,43.87Z" transform="translate(-5.87 0.46)"/><path d="M346.45,39.8a2.82,2.82,0,1,0,2.82,2.82A2.82,2.82,0,0,0,346.45,39.8Zm0,4.07a1.25,1.25,0,1,1,1.25-1.25A1.26,1.26,0,0,1,346.45,43.87Z" transform="translate(-5.87 0.46)"/><path d="M112.26,73.88s-.08,0-.18-.09V64.25c0-2.13-.93-3-3-3h-1.48a2.84,2.84,0,0,1-.32,1.7h.56l.23-.09a.36.36,0,0,1,.37.09h.66c1.14,0,1.34.21,1.34,1.37v9.57c-.3,0-.56,0-.81,0h-6.46c-1.44,0-2,.59-2,2,0,2.9,0,5.8,0,8.7,0,1.37.62,2,2,2h7.3v19c0,1.09-.23,1.31-1.32,1.31h-8c0-.32,0-.57,0-.83V95.5c0-1.51-.59-2.1-2.1-2.1-2,0-4.07,0-6.1,0-1.35,0-2,.6-2,1.94,0,3.58,0,7.16,0,10.74v.81H89.21v-.76c0-1.65,0-3.29,0-4.93a1.7,1.7,0,0,0-1.89-1.89c-2.68,0-5.36,0-8,0a1.72,1.72,0,0,0-1.92,1.93c0,1.86,0,3.72,0,5.62-.21,0-.37.06-.53.06-2.56,0-5.13,0-7.69,0-.77,0-1.08-.29-1.08-1,0-4.59,0-9.19,0-13.78,0-.11,0-.23,0-.38h1.66v2.79c0,1.25.15,1.4,1.43,1.4h5c.78,0,1.19-.29,1.16-.86s-.55-.83-1.13-.82H74.88V92.55h1.48c.59,0,1-.25,1-.89s-.43-.82-1-.82H74.85V89.16h1.5c.59,0,1-.24,1-.88s-.43-.82-1-.81-1,0-1.48,0V85.76h1.55a.8.8,0,0,0,.92-.8c0-.6-.35-.86-.92-.88H74.88V82.4h1.49c.55,0,1-.23,1-.84s-.42-.87-1-.87H74.91V79h1.41c.57,0,1-.18,1-.84s-.43-.86-1-.85H74.92V75.6H76.4c.56,0,1-.24,1-.83s-.38-.85-1-.85c-1.89,0-3.77,0-5.65,0-.72,0-1,.31-1,1.06,0,1,0,2.06,0,3.13H68.12c0-.24,0-.5,0-.76V64.23c0-1.1.22-1.31,1.32-1.31h13a6.31,6.31,0,0,1-1.88-1.14L80,61.53a.34.34,0,0,1-.2-.31H69.39c-2,0-3,1-3,3v14h-.88a1.62,1.62,0,0,0-1.64,1.61q0,5.15,0,10.31a1.63,1.63,0,0,0,1.64,1.61c.28,0,.56,0,.88,0v14.09a2.58,2.58,0,0,0,2.84,2.84h8.11c0,.18.05.27.05.37.07,1.66.57,2.15,2.2,2.15h6.83c2.41,0,2.57-.13,2.91-2.48h1.58c0,.23,0,.42,0,.61A2.54,2.54,0,0,0,93.75,112c1.6,0,3.19,0,4.79,0a2.52,2.52,0,0,0,2.58-2.5c0-.27,0-.55,0-.88h8c2.1,0,3-1,3-3.06V86.62l.39,0c1.64,0,2.15-.58,2.15-2.21v-8C114.61,74.38,114.31,74.05,112.26,73.88ZM71.49,75.6h1.57V94.17H71.49ZM65.56,89.93V79.86h4.12V89.92H65.56Zm21.91,19.49H79.1V101h8.37Zm5.19-14.3h6.66v8.39H96.84v-2.27c0-.36,0-.72,0-1.08a.79.79,0,0,0-.83-.84.78.78,0,0,0-.84.88c0,.89,0,1.79,0,2.68,0,.2,0,.38,0,.62H92.66V95.12Zm6.66,14.44a1.05,1.05,0,0,1-.74.69c-1.71.07-3.43.07-5.14,0a1.1,1.1,0,0,1-.79-.73c-.08-1.4,0-2.8,0-4.26h6.75C99.36,106.72,99.4,108.14,99.32,109.56Zm13.55-24.71H102.8V75.64h10.07Z" transform="translate(-5.87 0.46)"/><path class="cls-9" d="M89.2,91.68H84.33a1.71,1.71,0,0,1-1.89-1.88c0-1.84.07-3.67.08-5.5,0-1.38-.08-2.78-.08-4.16s.63-2,2-2H94c1.33,0,2,.62,2,1.93,0,1.85-.08,3.69-.09,5.54,0,1.38,0,2.77.08,4.15a1.71,1.71,0,0,1-1.79,1.91ZM94.28,90V79.88H84.15V90Z" transform="translate(-5.87 0.46)"/><path d="M72.32,105.21a2.54,2.54,0,0,1-.08-5.07,2.57,2.57,0,0,1,2.58,2.51A2.52,2.52,0,0,1,72.32,105.21Zm.91-2.32c0-.11,0-.22,0-.33-.3-.24-.57-.6-.92-.68s-.82.24-.86.75a.74.74,0,0,0,.8.88C72.6,103.46,72.91,103.1,73.23,102.89Z" transform="translate(-5.87 0.46)"/><path d="M72.24,69.65a2.54,2.54,0,0,1,.08-5.07,2.57,2.57,0,0,1,2.51,2.58A2.53,2.53,0,0,1,72.24,69.65Zm1-2.4c0-.11,0-.22,0-.33-.32-.21-.63-.56-1-.6-.49-.08-.78.3-.81.8s.43,1,.87.82S72.94,67.49,73.24,67.25Z" transform="translate(-5.87 0.46)"/><path d="M108.68,102.72a2.54,2.54,0,0,1-5.08-.07,2.54,2.54,0,1,1,5.08.07Zm-1.58.12c0-.11,0-.22,0-.33-.31-.23-.61-.57-1-.63a.71.71,0,0,0-.82.78c0,.54.32.92.84.83C106.51,103.44,106.79,103.07,107.1,102.84Z" transform="translate(-5.87 0.46)"/><path d="M84.32,64.48c.22.32.58.61.63,1s-.27.8-.79.83-1-.43-.84-.87a3.58,3.58,0,0,1,.67-.93Z" transform="translate(-5.87 0.46)"/><path d="M81.7,65.63c-.32.21-.62.57-1,.61-.53.06-.84-.33-.81-.88a.74.74,0,0,1,.87-.75c.34.07.61.44.93.68C81.71,65.4,81.7,65.52,81.7,65.63Z" transform="translate(-5.87 0.46)"/><path d="M88.48,65.64c-.32.21-.63.56-1,.6-.49.08-.79-.29-.82-.8s.43-1,.87-.83a3.31,3.31,0,0,1,.92.69Z" transform="translate(-5.87 0.46)"/><path d="M78.32,65.56c-.3.24-.58.6-.92.68s-.81-.24-.87-.75.36-1,.81-.89a3.32,3.32,0,0,1,1,.62C78.32,65.34,78.32,65.45,78.32,65.56Z" transform="translate(-5.87 0.46)"/><path d="M78.32,69c-.31.21-.6.57-.95.63-.53.09-.85-.29-.84-.84s.35-.86.84-.77.63.41.95.63Z" transform="translate(-5.87 0.46)"/><path d="M80.92,67.87c.22.31.58.59.64.93.08.52-.28.85-.84.84a.7.7,0,0,1-.78-.82c.06-.34.41-.63.62-.94Z" transform="translate(-5.87 0.46)"/><path d="M87.72,67.87c.21.32.55.61.6,1s-.28.81-.79.81-.91-.33-.81-.86c.06-.34.42-.62.65-.93Z" transform="translate(-5.87 0.46)"/><path d="M90.72,69.77c-.22-.32-.56-.61-.62-1s.28-.81.79-.81.91.33.82.85c-.07.34-.43.63-.65.93Z" transform="translate(-5.87 0.46)"/><path d="M84,69.78c-.24-.3-.6-.58-.68-.91s.22-.83.75-.87a.74.74,0,0,1,.89.8c0,.33-.4.64-.61,1Z" transform="translate(-5.87 0.46)"/><path d="M94.16,69.78c-.24-.3-.6-.58-.68-.91a.73.73,0,0,1,.75-.87c.55,0,.94.28.89.8,0,.34-.4.64-.6,1Z" transform="translate(-5.87 0.46)"/><path d="M107.05,81.52h1.51c.57,0,1,.26,1,.84s-.4.85-1,.85c-1.06,0-2.12,0-3.18,0-.56,0-.94-.3-.91-.89s.38-.8.92-.8Z" transform="translate(-5.87 0.46)"/><path d="M107,77.29h1.58a.81.81,0,0,1,.91.82.78.78,0,0,1-.87.85c-1.1,0-2.21,0-3.32,0a.77.77,0,0,1-.86-.85.8.8,0,0,1,.89-.83Z" transform="translate(-5.87 0.46)"/><path d="M84.15,105.22a2.4,2.4,0,0,1,0-.93c.15-.29.5-.7.75-.69a1.09,1.09,0,0,1,.85.63,5.6,5.6,0,0,1,0,2,1,1,0,0,1-.78.62c-.31,0-.64-.41-.82-.72s0-.6,0-.91Z" transform="translate(-5.87 0.46)"/><path d="M82.43,105.18c0,.29,0,.58,0,.86,0,.54-.31.88-.86.86a.78.78,0,0,1-.8-.84c0-.55,0-1.1,0-1.66a.79.79,0,0,1,.86-.85.77.77,0,0,1,.8.83C82.44,104.65,82.43,104.92,82.43,105.18Z" transform="translate(-5.87 0.46)"/><path d="M101,50.35l.89-2.48a10.58,10.58,0,0,0,4.44,3c4,1.42,8,.61,9.07-2.24s-1.61-6.09-5.56-7.51a9.33,9.33,0,0,0-6.86-.07,9.27,9.27,0,0,0-5.33-4.32c-3.95-1.42-8-.61-9.06,2.24S90.15,45,94.1,46.44a10.5,10.5,0,0,0,5.31.55l-.89,2.48a14.24,14.24,0,0,0-16.26,7.27,1.35,1.35,0,0,0-.3.47L80.2,62.08A1.3,1.3,0,0,0,81,63.74l24.38,8.78a1.29,1.29,0,0,0,1.65-.78l1.75-4.87a1.34,1.34,0,0,0,.08-.55A14.25,14.25,0,0,0,101,50.35Zm8-6.83c2.77,1,4.42,3,4,4.19s-3,1.68-5.76.68-4.42-3-4-4.19S106.14,42.52,108.92,43.52ZM95,44c-2.77-1-4.42-3-4-4.19s3-1.68,5.75-.68,4.43,3,4,4.19S97.76,45,95,44Zm3.91,8.29a11.67,11.67,0,0,1,7.62,12.39L85.11,57A11.66,11.66,0,0,1,98.88,52.29ZM105,69.64,83.08,61.75,84,59.31l21.93,7.89L105,69.64Z" transform="translate(-5.87 0.46)"/><line class="cls-10" x1="75.55" y1="62.99" x2="58.2" y2="56.8"/><path class="cls-11" d="M89.6,59.43c.93-2.84,3.93-7.28,6.09-8.89" transform="translate(-5.87 0.46)"/><path class="cls-11" d="M100.9,64.29c.73-2.73,1.46-8.23.8-11.47" transform="translate(-5.87 0.46)"/><path d="M55.26,73.88s-.08,0-.18-.09V64.25c0-2.13-.93-3-3-3H50.56a2.84,2.84,0,0,1-.32,1.7h.56l.23-.09a.36.36,0,0,1,.37.09h.66c1.14,0,1.34.21,1.34,1.37v9.57c-.3,0-.56,0-.81,0H46.13c-1.44,0-2,.59-2,2,0,2.9,0,5.8,0,8.7,0,1.37.62,2,2,2h7.3v19c0,1.09-.23,1.31-1.32,1.31h-8c0-.32,0-.57,0-.83V95.5c0-1.51-.59-2.1-2.1-2.1-2,0-4.07,0-6.1,0-1.35,0-2,.6-2,1.94,0,3.58,0,7.16,0,10.74v.81H32.21v-.76c0-1.65,0-3.29,0-4.93a1.7,1.7,0,0,0-1.89-1.89c-2.68,0-5.36,0-8,0a1.72,1.72,0,0,0-1.92,1.93c0,1.86,0,3.72,0,5.62-.21,0-.37.06-.53.06-2.56,0-5.13,0-7.69,0-.77,0-1.08-.29-1.08-1,0-4.59,0-9.19,0-13.78,0-.11,0-.23,0-.38h1.66v2.79c0,1.25.15,1.4,1.43,1.4h5c.78,0,1.19-.29,1.16-.86s-.55-.83-1.13-.82H17.88V92.55h1.48c.59,0,1-.25,1-.89s-.43-.82-1-.82H17.85V89.16h1.5c.59,0,1-.24,1-.88s-.43-.82-1-.81-1,0-1.48,0V85.76h1.55a.8.8,0,0,0,.92-.8c0-.6-.35-.86-.92-.88H17.88V82.4h1.49c.55,0,1-.23,1-.84s-.42-.87-1-.87H17.91V79h1.41c.57,0,1-.18,1-.84s-.43-.86-1-.85H17.92V75.6H19.4c.56,0,1-.24,1-.83s-.38-.85-.95-.85c-1.89,0-3.77,0-5.65,0-.72,0-1,.31-1,1.06,0,1,0,2.06,0,3.13H11.12c0-.24,0-.5,0-.76V64.23c0-1.1.22-1.31,1.32-1.31h13a6.31,6.31,0,0,1-1.88-1.14L23,61.53a.34.34,0,0,1-.2-.31H12.39c-2,0-3,1-3,3v14H8.52a1.62,1.62,0,0,0-1.64,1.61q0,5.15,0,10.31a1.63,1.63,0,0,0,1.64,1.61c.28,0,.56,0,.88,0v14.09a2.58,2.58,0,0,0,2.84,2.84h8.11c0,.18,0,.27,0,.37.07,1.66.57,2.15,2.2,2.15h6.83c2.41,0,2.57-.13,2.91-2.48h1.58c0,.23,0,.42,0,.61A2.54,2.54,0,0,0,36.75,112c1.6,0,3.19,0,4.79,0a2.52,2.52,0,0,0,2.58-2.5c0-.27,0-.55,0-.88h8c2.1,0,3-1,3-3.06V86.62l.39,0c1.64,0,2.15-.58,2.15-2.21v-8C57.61,74.38,57.31,74.05,55.26,73.88ZM14.49,75.6h1.57V94.17H14.49ZM8.56,89.93V79.86h4.12V89.92H8.56Zm21.91,19.49H22.1V101h8.37Zm5.19-14.3h6.66v8.39H39.84v-2.27c0-.36,0-.72,0-1.08a.79.79,0,0,0-.83-.84.78.78,0,0,0-.84.88c0,.89,0,1.79,0,2.68,0,.2,0,.38,0,.62H35.66V95.12Zm6.66,14.44a1.05,1.05,0,0,1-.74.69c-1.71.07-3.43.07-5.14,0a1.1,1.1,0,0,1-.79-.73c-.08-1.4,0-2.8,0-4.26h6.75C42.36,106.72,42.4,108.14,42.32,109.56ZM55.87,84.85H45.8V75.64H55.87Z" transform="translate(-5.87 0.46)"/><path class="cls-9" d="M32.2,91.68H27.33a1.71,1.71,0,0,1-1.89-1.88c0-1.84.07-3.67.08-5.5,0-1.38-.08-2.78-.08-4.16s.63-2,2-2H37c1.33,0,2,.62,2,1.93,0,1.85-.08,3.69-.09,5.54,0,1.38,0,2.77.08,4.15a1.71,1.71,0,0,1-1.79,1.91ZM37.28,90V79.88H27.15V90Z" transform="translate(-5.87 0.46)"/><path d="M15.32,105.21a2.54,2.54,0,0,1-.08-5.07,2.57,2.57,0,0,1,2.58,2.51A2.52,2.52,0,0,1,15.32,105.21Zm.91-2.32c0-.11,0-.22,0-.33-.3-.24-.57-.6-.92-.68s-.82.24-.86.75a.74.74,0,0,0,.8.88C15.6,103.46,15.91,103.1,16.23,102.89Z" transform="translate(-5.87 0.46)"/><path d="M15.24,69.65a2.54,2.54,0,0,1,.08-5.07,2.57,2.57,0,0,1,2.51,2.58A2.53,2.53,0,0,1,15.24,69.65Zm1-2.4c0-.11,0-.22,0-.33-.32-.21-.63-.56-1-.6-.49-.08-.78.3-.81.8s.43,1,.87.82S15.94,67.49,16.24,67.25Z" transform="translate(-5.87 0.46)"/><path d="M51.68,102.72a2.54,2.54,0,0,1-5.08-.07,2.54,2.54,0,1,1,5.08.07Zm-1.58.12c0-.11,0-.22,0-.33-.31-.23-.61-.57-1-.63a.71.71,0,0,0-.82.78c0,.54.32.92.84.83C49.51,103.44,49.79,103.07,50.1,102.84Z" transform="translate(-5.87 0.46)"/><path d="M27.32,64.48c.22.32.58.61.63,1s-.27.8-.79.83-1-.43-.84-.87a3.58,3.58,0,0,1,.67-.93Z" transform="translate(-5.87 0.46)"/><path d="M24.7,65.63c-.32.21-.62.57-1,.61-.53.06-.84-.33-.81-.88a.74.74,0,0,1,.87-.75c.34.07.61.44.93.68C24.71,65.4,24.7,65.52,24.7,65.63Z" transform="translate(-5.87 0.46)"/><path d="M31.48,65.64c-.32.21-.63.56-1,.6-.49.08-.79-.29-.82-.8s.43-1,.87-.83a3.31,3.31,0,0,1,.92.69Z" transform="translate(-5.87 0.46)"/><path d="M21.32,65.56c-.3.24-.58.6-.92.68s-.81-.24-.87-.75.36-1,.81-.89a3.32,3.32,0,0,1,1,.62C21.32,65.34,21.32,65.45,21.32,65.56Z" transform="translate(-5.87 0.46)"/><path d="M21.32,69c-.31.21-.6.57-.95.63-.53.09-.85-.29-.84-.84s.35-.86.84-.77.63.41.95.63Z" transform="translate(-5.87 0.46)"/><path d="M23.92,67.87c.22.31.58.59.64.93.08.52-.28.85-.84.84a.7.7,0,0,1-.78-.82c.06-.34.41-.63.62-.94Z" transform="translate(-5.87 0.46)"/><path d="M30.72,67.87c.21.32.55.61.6,1s-.28.81-.79.81-.91-.33-.81-.86c.06-.34.42-.62.65-.93Z" transform="translate(-5.87 0.46)"/><path d="M33.72,69.77c-.22-.32-.56-.61-.62-1s.28-.81.79-.81.91.33.82.85c-.07.34-.43.63-.65.93Z" transform="translate(-5.87 0.46)"/><path d="M27,69.78c-.24-.3-.6-.58-.68-.91s.22-.83.75-.87a.74.74,0,0,1,.89.8c0,.33-.4.64-.61,1Z" transform="translate(-5.87 0.46)"/><path d="M37.16,69.78c-.24-.3-.6-.58-.68-.91a.73.73,0,0,1,.75-.87c.55,0,.94.28.89.8,0,.34-.4.64-.6,1Z" transform="translate(-5.87 0.46)"/><path d="M50.05,81.52h1.51c.57,0,1,.26.95.84s-.4.85-.95.85c-1.06,0-2.12,0-3.18,0-.56,0-.94-.3-.91-.89s.38-.8.92-.8Z" transform="translate(-5.87 0.46)"/><path d="M50,77.29h1.58a.81.81,0,0,1,.91.82.78.78,0,0,1-.87.85c-1.1,0-2.21,0-3.32,0a.77.77,0,0,1-.86-.85.8.8,0,0,1,.89-.83Z" transform="translate(-5.87 0.46)"/><path d="M27.15,105.22a2.4,2.4,0,0,1,0-.93c.15-.29.5-.7.75-.69a1.09,1.09,0,0,1,.85.63,5.6,5.6,0,0,1,0,2,1,1,0,0,1-.78.62c-.31,0-.64-.41-.82-.72s0-.6,0-.91Z" transform="translate(-5.87 0.46)"/><path d="M25.43,105.18c0,.29,0,.58,0,.86,0,.54-.31.88-.86.86a.78.78,0,0,1-.8-.84c0-.55,0-1.1,0-1.66a.79.79,0,0,1,.86-.85.77.77,0,0,1,.8.83C25.44,104.65,25.43,104.92,25.43,105.18Z" transform="translate(-5.87 0.46)"/><path d="M44,50.35l.89-2.48a10.58,10.58,0,0,0,4.44,3c4,1.42,8,.61,9.07-2.24s-1.61-6.09-5.56-7.51A9.33,9.33,0,0,0,45.93,41a9.27,9.27,0,0,0-5.33-4.32c-4-1.42-8-.61-9.06,2.24S33.15,45,37.1,46.44a10.5,10.5,0,0,0,5.31.55l-.89,2.48a14.24,14.24,0,0,0-16.26,7.27,1.35,1.35,0,0,0-.3.47L23.2,62.08A1.3,1.3,0,0,0,24,63.74l24.38,8.78A1.29,1.29,0,0,0,50,71.74l1.75-4.87a1.34,1.34,0,0,0,.08-.55A14.25,14.25,0,0,0,44,50.35Zm8-6.83c2.77,1,4.42,3,4,4.19s-3,1.68-5.76.68-4.42-3-4-4.19S49.14,42.52,51.92,43.52ZM38,44c-2.77-1-4.42-3-4-4.19s3-1.68,5.75-.68,4.43,3,4,4.19S40.76,45,38,44Zm3.91,8.29A11.67,11.67,0,0,1,49.5,64.68L28.11,57A11.66,11.66,0,0,1,41.88,52.29ZM48,69.64,26.08,61.75,27,59.31,48.89,67.2,48,69.64Z" transform="translate(-5.87 0.46)"/><line class="cls-10" x1="18.55" y1="62.99" x2="1.2" y2="56.8"/><path class="cls-11" d="M32.6,59.43c.93-2.84,3.93-7.28,6.09-8.89" transform="translate(-5.87 0.46)"/><path class="cls-11" d="M43.9,64.29c.73-2.73,1.46-8.23.8-11.47" transform="translate(-5.87 0.46)"/></svg>