<?xml version="1.0" encoding="utf-8"?>
<!-- Generator: Adobe Illustrator 23.0.3, SVG Export Plug-In . SVG Version: 6.00 Build 0)  -->
<svg version="1.1" id="Layer_1" xmlns="http://www.w3.org/2000/svg" xmlns:xlink="http://www.w3.org/1999/xlink" x="0px" y="0px"
	 viewBox="0 0 141.8 148.3" style="enable-background:new 0 0 141.8 148.3;" xml:space="preserve">
<style type="text/css">
	.st0{fill:#FFFFFF;}
	.st1{fill:#FF0000;}
	.st2{fill:none;stroke:#888888;stroke-width:0.5;stroke-miterlimit:10;}
	.st3{fill:none;stroke:#000000;stroke-miterlimit:10;}
	.st4{fill:none;stroke:#FF0000;stroke-miterlimit:10;}
	.st5{fill:none;stroke:#000000;stroke-width:0.25;stroke-miterlimit:10;}
</style>
<circle class="st0" cx="67.8" cy="73.8" r="81.2"/>
<title>autopilot_logo</title>
<g>
	<path d="M32.1,66.8L30.2,59h-8.4l-2.2,7.7h-3L24,41.3h4.6l6.5,25.4h-3V66.8z M27.2,46.8l-0.8-3.9h-0.1l-1,3.8l-3,10h7.3L27.2,46.8z
		"/>
	<path d="M45.3,67.2c-5,0-8.4-1.7-8.4-9.1V41.3h3v16.6c0,5.6,2.2,6.7,5.4,6.7c3.6,0,5.4-1.5,5.4-7.4V41.3h2.8v15.9
		C53.6,65.4,49.9,67.2,45.3,67.2z"/>
	<path d="M65.9,43.8v23h-3v-23h-7.4v-2.5h17.8v2.5C73.3,43.8,65.9,43.8,65.9,43.8z"/>
	<path d="M83.3,67.2c-6.9,0-8.3-5.4-8.3-13.2c0-8.1,2.1-13,9-13c6.7,0,8.2,5.6,8.2,13.1C92.2,61.9,90.6,67.2,83.3,67.2z M83.8,43.4
		c-4.5,0-5.7,4.4-5.7,10.5c0,5.6,0.5,10.8,5.4,10.8c5.4,0,5.8-4.9,5.8-10.7S88.5,43.4,83.8,43.4z"/>
	<path class="st1" d="M6.2,91.6H3v9.2H0V75.3h8c5,0,7.9,2.8,7.9,8C16,87.8,13.2,91.6,6.2,91.6z M7.2,77.7H3v11.4h3.4
		c4,0,6.5-1.6,6.5-5.6C12.9,79.4,11.2,77.7,7.2,77.7L7.2,77.7z"/>
	<path class="st1" d="M17.5,100.7v-2.4h7.1V77.7h-7.1v-2.4h17v2.4h-7v20.6h7v2.4H17.5z"/>
	<path d="M40.1,100.7V75.3h3v22.8h10.6v2.6L40.1,100.7z"/>
	<path d="M64.1,101.1c-6.9,0-8.3-5.4-8.3-13.2c0-8.1,2.1-13,9-13c6.7,0,8.2,5.6,8.2,13.1C73,95.9,71.4,101.1,64.1,101.1z M64.5,77.4
		c-4.5,0-5.7,4.4-5.7,10.5c0,5.6,0.5,10.8,5.4,10.8c5.4,0,5.8-4.9,5.8-10.7S69.3,77.4,64.5,77.4L64.5,77.4z"/>
	<path d="M85.1,77.8v23h-3v-23h-7.4v-2.5h17.7v2.5H85.1z"/>
	<path class="st2" d="M18.2,128.9c30.2,27,76.6,24.4,103.6-5.9s24.4-76.6-5.9-103.6C98,3.3,73.2-2.9,49.8,2.8"/>
	<path class="st2" d="M21.5,125.2c28.2,25.2,71.5,22.7,96.7-5.5S141,48.2,112.8,23C96,8,72.9,2.3,51,7.6l0,0"/>
	<path class="st2" d="M24.8,121.6c26.2,23.4,66.4,21.1,89.8-5.1s21.1-66.4-5.1-89.8c-15.6-13.9-37-19.3-57.3-14.4l0,0"/>
	<path class="st2" d="M28,117.9c24.2,21.6,61.3,19.5,82.9-4.7s19.5-61.3-4.7-82.9C91.8,17.5,72,12.5,53.3,17.1l0,0"/>
	<path class="st2" d="M31.3,114.3c22.2,19.8,56.2,17.9,76-4.3s17.9-56.2-4.3-76C89.8,22.2,71.7,17.7,54.5,21.8l0,0"/>
	<path class="st2" d="M34.6,110.6c20.2,18,51.1,16.3,69.1-3.9s16.3-51.1-3.9-69.1c-12-10.7-28.5-14.9-44.2-11.1l0,0"/>
	<path class="st2" d="M37.8,107c18.1,16.2,46,14.6,62.2-3.5s14.6-46-3.5-62.2c-10.8-9.6-25.6-13.4-39.7-10"/>
	<path class="st3" d="M104.3,10.8C88.2,1.4,69.1-1.6,51,2.5"/>
	<circle cx="104.2" cy="10.8" r="1.2"/>
	<circle cx="51" cy="2.5" r="1.2"/>
	<path class="st3" d="M124,27.6c-3-3.7-6.3-7-10-10"/>
	<circle cx="123.9" cy="27.6" r="1.2"/>
	<circle cx="114" cy="17.6" r="1.2"/>
	<path class="st3" d="M134.6,86.8c2.3-12.2,1.2-24.8-3.1-36.4"/>
	<circle cx="134.6" cy="86.8" r="1.2"/>
	<circle cx="131.5" cy="50.5" r="1.2"/>
	<line class="st3" x1="52.2" y1="12.3" x2="52.2" y2="12.3"/>
	<path class="st3" d="M67.2,10.5"/>
	<path class="st3" d="M86.4,13.5c-3-0.9-6-1.7-9.1-2.1l0.5-4.9c-8.5-1.3-17.2-1.1-25.6,0.8"/>
	<circle cx="86.4" cy="13.5" r="1.2"/>
	<circle cx="52.2" cy="7.3" r="1.2"/>
	<path class="st3" d="M109.7,121.6c13.2-11.8,20.9-28.5,21.2-46.2"/>
	<circle cx="109.7" cy="121.5" r="1.2"/>
	<circle cx="130.8" cy="75.4" r="1.2"/>
	<path class="st3" d="M28.9,118.7c24.6,21.1,61.7,18.3,82.8-6.3s18.3-61.7-6.3-82.8c-14-12-32.9-16.8-50.9-12.8"/>
	<circle cx="29" cy="118.7" r="1.2"/>
	<circle cx="54.5" cy="16.8" r="1.2"/>
	<line class="st3" x1="54.5" y1="21.8" x2="54.5" y2="21.8"/>
	<path class="st3" d="M108.4,39.5C98.2,27.3,83.1,20.3,67.2,20.3c-1.8,0-3.6,0.1-5.3,0.3"/>
	<circle cx="108.4" cy="39.5" r="1.2"/>
	<circle cx="62" cy="20.6" r="1.2"/>
	<path class="st3" d="M117.1,53.8"/>
	<path class="st3" d="M40.5,120.9c22.3,12.7,50.5,7.9,67.4-11.5l3.7,3.3"/>
	<circle cx="40.6" cy="121" r="1.2"/>
	<path class="st3" d="M31.3,114.3"/>
	<line class="st3" x1="55.6" y1="26.6" x2="55.6" y2="26.6"/>
	<path class="st3" d="M67.2,25.2"/>
	<path class="st3" d="M56.2,121.9c20.5,4.7,41.6-4.1,52.7-22"/>
	<circle cx="56.3" cy="121.9" r="1.2"/>
	<circle cx="108.8" cy="99.9" r="1.2"/>
	<path class="st3" d="M34.6,110.6"/>
	<path class="st4" d="M56.8,31.3"/>
	<path class="st4" d="M38.7,107.8c18.6,15.7,46.4,13.4,62.1-5.1s13.4-46.4-5.1-62.1C88,34.1,78.4,30.4,68.4,30.1"/>
	<circle class="st1" cx="38.8" cy="107.8" r="1.2"/>
	<circle class="st1" cx="68.4" cy="30.1" r="1.2"/>
	<path class="st5" d="M138.7,57.5"/>
	<path class="st5" d="M69,74.2"/>
	<path class="st5" d="M31.3,138.2"/>
	<line class="st4" x1="98.8" y1="43.4" x2="102.2" y2="39.9"/>
	<path class="st3" d="M87.6,29.7c21.5,9.8,32.9,33.6,27.1,56.5l4.7,1.2c1.1-4.3,1.6-8.8,1.6-13.2c0-1.4-0.1-2.8-0.2-4.1"/>
	<circle cx="87.6" cy="29.7" r="1.2"/>
	<circle cx="120.9" cy="70.1" r="1.2"/>
	<line class="st3" x1="93.2" y1="27" x2="95.4" y2="22.6"/>
	<path class="st3" d="M44.9,144.1c-9.5-3-18.3-8-25.8-14.5"/>
	<circle cx="44.9" cy="144.1" r="1.2"/>
	<circle cx="19.2" cy="129.7" r="1.2"/>
	<path class="st3" d="M140.6,75.3c-0.3,19.1-8,37.4-21.6,50.9"/>
	<circle cx="140.6" cy="75.4" r="1.2"/>
	<circle cx="119" cy="126.1" r="1.2"/>
	<path class="st3" d="M139.5,61.1c-1.8-10.2-5.9-19.9-11.8-28.5l-4.1,2.7c-7-10.1-16.5-18.1-27.6-23.3l0.4,0.2l2-4.5"/>
	<circle cx="139.4" cy="61" r="1.2"/>
	<path class="st3" d="M133.6,57.1l-4.7,1.3c-4.6-17.8-16.6-32.7-33-41"/>
	<circle cx="96" cy="17.4" r="1.2"/>
	<path class="st3" d="M21.5,125.2"/>
	<path class="st3" d="M125.6,118.7l-3.9-3c-13,17-33.1,27-54.5,27c-0.9,0-1.8,0-2.7,0"/>
	<circle cx="64.6" cy="142.6" r="1.2"/>
	<path class="st3" d="M109.8,121.4"/>
	<path class="st3" d="M24.8,121.6"/>
	<path class="st3" d="M96.7,136l-2.2-4.4c-15.3,7.3-32.9,8.2-48.8,2.5"/>
	<circle cx="45.8" cy="134.1" r="1.2"/>
	<path class="st3" d="M29,131.1c7.8,5.3,16.7,8.9,26,10.5l-1,4.8c12.4,2.2,25.1,1.3,37-2.7"/>
	<circle cx="29.1" cy="131.1" r="1.2"/>
	<circle cx="90.9" cy="143.6" r="1.2"/>
	<line class="st3" x1="78.6" y1="127" x2="77.4" y2="122.1"/>
</g>
</svg>
